<?xml version="1.0" standalone="yes"?>

<svg version="1.1" viewBox="0.0 0.0 1024.0 768.0" fill="none" stroke="none" stroke-linecap="square" stroke-miterlimit="10" xmlns="http://www.w3.org/2000/svg" xmlns:xlink="http://www.w3.org/1999/xlink"><clipPath id="p.0"><path d="m0 0l1024.0 0l0 768.0l-1024.0 0l0 -768.0z" clip-rule="nonzero"></path></clipPath><g clip-path="url(#p.0)"><path fill="#000000" fill-opacity="0.0" d="m0 0l1024.0 0l0 768.0l-1024.0 0z" fill-rule="nonzero"></path><path fill="#000000" fill-opacity="0.0" d="m56.0 16.0l928.0 0l0 584.0l-928.0 0z" fill-rule="nonzero"></path><path stroke="#0000ff" stroke-width="2.0" stroke-linejoin="round" stroke-linecap="butt" d="m56.0 16.0l928.0 0l0 584.0l-928.0 0z" fill-rule="nonzero"></path><path fill="#000000" fill-opacity="0.0" d="m128.0 160.0l800.0 0l0 368.0l-800.0 0z" fill-rule="nonzero"></path><path stroke="#000000" stroke-width="2.0" stroke-linejoin="round" stroke-linecap="butt" d="m128.0 160.0l800.0 0l0 368.0l-800.0 0z" fill-rule="nonzero"></path><path fill="#000000" fill-opacity="0.0" d="m128.0 160.0l408.0 0l0 368.0l-408.0 0z" fill-rule="nonzero"></path><path stroke="#ff0000" stroke-width="2.0" stroke-linejoin="round" stroke-linecap="butt" d="m128.0 160.0l408.0 0l0 368.0l-408.0 0z" fill-rule="nonzero"></path><path fill="#000000" fill-opacity="0.0" d="m536.0 160.0l392.0 0l0 368.0l-392.0 0z" fill-rule="nonzero"></path><path stroke="#00ff00" stroke-width="2.0" stroke-linejoin="round" stroke-linecap="butt" d="m536.0 160.0l392.0 0l0 368.0l-392.0 0z" fill-rule="nonzero"></path><path fill="#000000" fill-opacity="0.0" d="m624.0 472.0l304.0 0l0 48.0l-304.0 0z" fill-rule="nonzero"></path><path fill="#000000" d="m645.41016 496.78125l0 -1.34375l4.859375 0l0 4.25q-1.125 0.890625 -2.3125 1.34375q-1.1875 0.453125 -2.4375 0.453125q-1.6875 0 -3.0625 -0.71875q-1.375 -0.734375 -2.078125 -2.09375q-0.703125 -1.375 -0.703125 -3.0625q0 -1.671875 0.6875 -3.125q0.703125 -1.453125 2.015625 -2.15625q1.3125 -0.703125 3.03125 -0.703125q1.234375 0 2.234375 0.40625q1.015625 0.40625 1.578125 1.125q0.578125 0.71875 0.875 1.875l-1.375 0.375q-0.25 -0.875 -0.640625 -1.375q-0.375 -0.5 -1.09375 -0.796875q-0.703125 -0.3125 -1.578125 -0.3125q-1.03125 0 -1.796875 0.328125q-0.75 0.3125 -1.21875 0.828125q-0.46875 0.515625 -0.71875 1.125q-0.4375 1.0625 -0.4375 2.3125q0 1.53125 0.515625 2.5625q0.53125 1.03125 1.53125 1.53125q1.015625 0.5 2.15625 0.5q0.984375 0 1.921875 -0.375q0.9375 -0.390625 1.421875 -0.8125l0 -2.140625l-3.375 0zm6.8984375 4.5l0 -8.296875l1.265625 0l0 1.25q0.484375 -0.875 0.890625 -1.15625q0.40625 -0.28125 0.90625 -0.28125q0.703125 0 1.4375 0.453125l-0.484375 1.296875q-0.515625 -0.296875 -1.03125 -0.296875q-0.453125 0 -0.828125 0.28125q-0.359375 0.265625 -0.515625 0.765625q-0.234375 0.75 -0.234375 1.640625l0 4.34375l-1.40625 0zm11.46875 -7.8125l0.765625 -1.0l0.75 0.546875l-0.828125 1.078125q0.484375 0.671875 0.671875 1.21875q0.234375 0.78125 0.234375 1.828125q0 2.34375 -1.3125 3.4375q-1.078125 0.890625 -2.578125 0.890625q-1.25 0 -2.203125 -0.625l-0.8125 1.0625l-0.734375 -0.5625l0.84375 -1.109375q-0.46875 -0.53125 -0.65625 -1.0625q-0.3125 -0.84375 -0.3125 -1.921875q0 -2.359375 1.140625 -3.40625q1.15625 -1.046875 2.703125 -1.046875q0.640625 0 1.171875 0.171875q0.546875 0.15625 1.15625 0.5zm-0.796875 1.03125q-0.703125 -0.546875 -1.484375 -0.546875q-1.046875 0 -1.75 0.796875q-0.703125 0.796875 -0.703125 2.375q0 1.171875 0.40625 1.96875l3.53125 -4.59375zm0.59375 0.765625l-3.515625 4.546875q0.609375 0.5 1.375 0.5q1.09375 0 1.796875 -0.796875q0.703125 -0.796875 0.703125 -2.390625q0 -0.59375 -0.09375 -1.046875q-0.0625 -0.328125 -0.265625 -0.8125zm3.8515625 6.015625l0 -8.296875l1.265625 0l0 1.171875q0.90625 -1.359375 2.640625 -1.359375q0.75 0 1.375 0.265625q0.625 0.265625 0.9375 0.703125q0.3125 0.4375 0.4375 1.046875q0.078125 0.390625 0.078125 1.359375l0 5.109375l-1.40625 0l0 -5.046875q0 -0.859375 -0.171875 -1.28125q-0.15625 -0.4375 -0.578125 -0.6875q-0.40625 -0.25 -0.96875 -0.25q-0.90625 0 -1.5625 0.578125q-0.640625 0.5625 -0.640625 2.15625l0 4.53125l-1.40625 0zm8.8984375 0l0 -8.296875l1.265625 0l0 1.171875q0.90625 -1.359375 2.640625 -1.359375q0.75 0 1.375 0.265625q0.625 0.265625 0.9375 0.703125q0.3125 0.4375 0.4375 1.046875q0.078125 0.390625 0.078125 1.359375l0 5.109375l-1.40625 0l0 -5.046875q0 -0.859375 -0.171875 -1.28125q-0.15625 -0.4375 -0.578125 -0.6875q-0.40625 -0.25 -0.96875 -0.25q-0.90625 0 -1.5625 0.578125q-0.640625 0.5625 -0.640625 2.15625l0 4.53125l-1.40625 0zm14.640625 0l-1.3125 0l0 -11.453125l1.40625 0l0 4.078125q0.890625 -1.109375 2.28125 -1.109375q0.765625 0 1.4375 0.3125q0.6875 0.296875 1.125 0.859375q0.453125 0.5625 0.703125 1.359375q0.25 0.78125 0.25 1.671875q0 2.140625 -1.0625 3.3125q-1.046875 1.15625 -2.53125 1.15625q-1.46875 0 -2.296875 -1.234375l0 1.046875zm-0.015625 -4.21875q0 1.5 0.40625 2.15625q0.65625 1.09375 1.796875 1.09375q0.921875 0 1.59375 -0.796875q0.671875 -0.8125 0.671875 -2.390625q0 -1.625 -0.65625 -2.390625q-0.640625 -0.78125 -1.546875 -0.78125q-0.921875 0 -1.59375 0.796875q-0.671875 0.796875 -0.671875 2.3125zm7.0859375 0.0625q0 -2.296875 1.28125 -3.40625q1.078125 -0.921875 2.609375 -0.921875q1.71875 0 2.796875 1.125q1.09375 1.109375 1.09375 3.09375q0 1.59375 -0.484375 2.515625q-0.484375 0.921875 -1.40625 1.4375q-0.90625 0.5 -2.0 0.5q-1.734375 0 -2.8125 -1.109375q-1.078125 -1.125 -1.078125 -3.234375zm1.453125 0q0 1.59375 0.6875 2.390625q0.703125 0.796875 1.75 0.796875q1.046875 0 1.734375 -0.796875q0.703125 -0.796875 0.703125 -2.4375q0 -1.53125 -0.703125 -2.328125q-0.6875 -0.796875 -1.734375 -0.796875q-1.046875 0 -1.75 0.796875q-0.6875 0.78125 -0.6875 2.375zm7.9765625 4.15625l0 -11.453125l1.40625 0l0 6.53125l3.328125 -3.375l1.828125 0l-3.171875 3.078125l3.484375 5.21875l-1.734375 0l-2.734375 -4.25l-1.0 0.953125l0 3.296875l-1.40625 0zm7.4375 -2.484375l1.390625 -0.21875q0.109375 0.84375 0.640625 1.296875q0.546875 0.4375 1.5 0.4375q0.96875 0 1.4375 -0.390625q0.46875 -0.40625 0.46875 -0.9375q0 -0.46875 -0.40625 -0.75q-0.296875 -0.1875 -1.4375 -0.46875q-1.546875 -0.390625 -2.15625 -0.671875q-0.59375 -0.296875 -0.90625 -0.796875q-0.296875 -0.5 -0.296875 -1.109375q0 -0.5625 0.25 -1.03125q0.25 -0.46875 0.6875 -0.78125q0.328125 -0.25 0.890625 -0.40625q0.578125 -0.171875 1.21875 -0.171875q0.984375 0 1.71875 0.28125q0.734375 0.28125 1.078125 0.765625q0.359375 0.46875 0.5 1.28125l-1.375 0.1875q-0.09375 -0.640625 -0.546875 -1.0q-0.453125 -0.359375 -1.265625 -0.359375q-0.96875 0 -1.390625 0.328125q-0.40625 0.3125 -0.40625 0.734375q0 0.28125 0.171875 0.5q0.171875 0.21875 0.53125 0.375q0.21875 0.078125 1.25 0.359375q1.484375 0.390625 2.078125 0.65625q0.59375 0.25 0.921875 0.734375q0.34375 0.484375 0.34375 1.203125q0 0.703125 -0.421875 1.328125q-0.40625 0.609375 -1.1875 0.953125q-0.765625 0.34375 -1.734375 0.34375q-1.625 0 -2.46875 -0.671875q-0.84375 -0.671875 -1.078125 -2.0zm16.070312 1.21875l0.203125 1.25q-0.59375 0.125 -1.0625 0.125q-0.765625 0 -1.1875 -0.234375q-0.421875 -0.25 -0.59375 -0.640625q-0.171875 -0.40625 -0.171875 -1.671875l0 -4.765625l-1.03125 0l0 -1.09375l1.03125 0l0 -2.0625l1.40625 -0.84375l0 2.90625l1.40625 0l0 1.09375l-1.40625 0l0 4.84375q0 0.609375 0.0625 0.78125q0.078125 0.171875 0.25 0.28125q0.171875 0.09375 0.484375 0.09375q0.234375 0 0.609375 -0.0625zm6.7890625 0.234375q-0.78125 0.671875 -1.5 0.953125q-0.71875 0.265625 -1.546875 0.265625q-1.375 0 -2.109375 -0.671875q-0.734375 -0.671875 -0.734375 -1.703125q0 -0.609375 0.28125 -1.109375q0.28125 -0.515625 0.71875 -0.8125q0.453125 -0.3125 1.015625 -0.46875q0.421875 -0.109375 1.25 -0.203125q1.703125 -0.203125 2.515625 -0.484375q0 -0.296875 0 -0.375q0 -0.859375 -0.390625 -1.203125q-0.546875 -0.484375 -1.609375 -0.484375q-0.984375 0 -1.46875 0.359375q-0.46875 0.34375 -0.6875 1.21875l-1.375 -0.1875q0.1875 -0.875 0.609375 -1.421875q0.4375 -0.546875 1.25 -0.828125q0.8125 -0.296875 1.875 -0.296875q1.0625 0 1.71875 0.25q0.671875 0.25 0.984375 0.625q0.3125 0.375 0.4375 0.953125q0.078125 0.359375 0.078125 1.296875l0 1.875q0 1.96875 0.078125 2.484375q0.09375 0.515625 0.359375 1.0l-1.46875 0q-0.21875 -0.4375 -0.28125 -1.03125zm-0.109375 -3.140625q-0.765625 0.3125 -2.296875 0.53125q-0.875 0.125 -1.234375 0.28125q-0.359375 0.15625 -0.5625 0.46875q-0.1875 0.296875 -0.1875 0.65625q0 0.5625 0.421875 0.9375q0.4375 0.375 1.25 0.375q0.8125 0 1.4375 -0.34375q0.640625 -0.359375 0.9375 -0.984375q0.234375 -0.46875 0.234375 -1.40625l0 -0.515625zm7.515625 0.015625q0 -2.296875 1.28125 -3.40625q1.078125 -0.921875 2.609375 -0.921875q1.71875 0 2.796875 1.125q1.09375 1.109375 1.09375 3.09375q0 1.59375 -0.484375 2.515625q-0.484375 0.921875 -1.40625 1.4375q-0.90625 0.5 -2.0 0.5q-1.734375 0 -2.8125 -1.109375q-1.078125 -1.125 -1.078125 -3.234375zm1.453125 0q0 1.59375 0.6875 2.390625q0.703125 0.796875 1.75 0.796875q1.046875 0 1.734375 -0.796875q0.703125 -0.796875 0.703125 -2.4375q0 -1.53125 -0.703125 -2.328125q-0.6875 -0.796875 -1.734375 -0.796875q-1.046875 0 -1.75 0.796875q-0.6875 0.78125 -0.6875 2.375zm7.9765625 7.34375l0 -11.484375l1.28125 0l0 1.078125q0.453125 -0.640625 1.015625 -0.953125q0.578125 -0.3125 1.390625 -0.3125q1.0625 0 1.875 0.546875q0.8125 0.546875 1.21875 1.546875q0.421875 0.984375 0.421875 2.171875q0 1.28125 -0.46875 2.296875q-0.453125 1.015625 -1.328125 1.5625q-0.859375 0.546875 -1.828125 0.546875q-0.703125 0 -1.265625 -0.296875q-0.546875 -0.296875 -0.90625 -0.75l0 4.046875l-1.40625 0zm1.265625 -7.296875q0 1.609375 0.640625 2.375q0.65625 0.765625 1.578125 0.765625q0.9375 0 1.609375 -0.796875q0.671875 -0.796875 0.671875 -2.453125q0 -1.59375 -0.65625 -2.375q-0.65625 -0.796875 -1.5625 -0.796875q-0.890625 0 -1.59375 0.84375q-0.6875 0.84375 -0.6875 2.4375zm7.6328125 7.296875l0 -11.484375l1.28125 0l0 1.078125q0.453125 -0.640625 1.015625 -0.953125q0.578125 -0.3125 1.390625 -0.3125q1.0625 0 1.875 0.546875q0.8125 0.546875 1.21875 1.546875q0.421875 0.984375 0.421875 2.171875q0 1.28125 -0.46875 2.296875q-0.453125 1.015625 -1.328125 1.5625q-0.859375 0.546875 -1.828125 0.546875q-0.703125 0 -1.265625 -0.296875q-0.546875 -0.296875 -0.90625 -0.75l0 4.046875l-1.40625 0zm1.265625 -7.296875q0 1.609375 0.640625 2.375q0.65625 0.765625 1.578125 0.765625q0.9375 0 1.609375 -0.796875q0.671875 -0.796875 0.671875 -2.453125q0 -1.59375 -0.65625 -2.375q-0.65625 -0.796875 -1.5625 -0.796875q-0.890625 0 -1.59375 0.84375q-0.6875 0.84375 -0.6875 2.4375zm12.0625 4.109375l0 -8.296875l1.265625 0l0 1.25q0.484375 -0.875 0.890625 -1.15625q0.40625 -0.28125 0.90625 -0.28125q0.703125 0 1.4375 0.453125l-0.484375 1.296875q-0.515625 -0.296875 -1.03125 -0.296875q-0.453125 0 -0.828125 0.28125q-0.359375 0.265625 -0.515625 0.765625q-0.234375 0.75 -0.234375 1.640625l0 4.34375l-1.40625 0zm11.015625 -2.671875l1.453125 0.171875q-0.34375 1.28125 -1.28125 1.984375q-0.921875 0.703125 -2.359375 0.703125q-1.828125 0 -2.890625 -1.125q-1.0625 -1.125 -1.0625 -3.140625q0 -2.09375 1.078125 -3.25q1.078125 -1.15625 2.796875 -1.15625q1.65625 0 2.703125 1.140625q1.0625 1.125 1.0625 3.171875q0 0.125 0 0.375l-6.1875 0q0.078125 1.375 0.765625 2.109375q0.703125 0.71875 1.734375 0.71875q0.78125 0 1.328125 -0.40625q0.546875 -0.40625 0.859375 -1.296875zm-4.609375 -2.28125l4.625 0q-0.09375 -1.046875 -0.53125 -1.5625q-0.671875 -0.8125 -1.734375 -0.8125q-0.96875 0 -1.640625 0.65625q-0.65625 0.640625 -0.71875 1.71875zm7.2734375 2.46875l1.390625 -0.21875q0.109375 0.84375 0.640625 1.296875q0.546875 0.4375 1.5 0.4375q0.96875 0 1.4375 -0.390625q0.46875 -0.40625 0.46875 -0.9375q0 -0.46875 -0.40625 -0.75q-0.296875 -0.1875 -1.4375 -0.46875q-1.546875 -0.390625 -2.15625 -0.671875q-0.59375 -0.296875 -0.90625 -0.796875q-0.296875 -0.5 -0.296875 -1.109375q0 -0.5625 0.25 -1.03125q0.25 -0.46875 0.6875 -0.78125q0.328125 -0.25 0.890625 -0.40625q0.578125 -0.171875 1.21875 -0.171875q0.984375 0 1.71875 0.28125q0.734375 0.28125 1.078125 0.765625q0.359375 0.46875 0.5 1.28125l-1.375 0.1875q-0.09375 -0.640625 -0.546875 -1.0q-0.453125 -0.359375 -1.265625 -0.359375q-0.96875 0 -1.390625 0.328125q-0.40625 0.3125 -0.40625 0.734375q0 0.28125 0.171875 0.5q0.171875 0.21875 0.53125 0.375q0.21875 0.078125 1.25 0.359375q1.484375 0.390625 2.078125 0.65625q0.59375 0.25 0.921875 0.734375q0.34375 0.484375 0.34375 1.203125q0 0.703125 -0.421875 1.328125q-0.40625 0.609375 -1.1875 0.953125q-0.765625 0.34375 -1.734375 0.34375q-1.625 0 -2.46875 -0.671875q-0.84375 -0.671875 -1.078125 -2.0zm11.625 1.21875l0.203125 1.25q-0.59375 0.125 -1.0625 0.125q-0.765625 0 -1.1875 -0.234375q-0.421875 -0.25 -0.59375 -0.640625q-0.171875 -0.40625 -0.171875 -1.671875l0 -4.765625l-1.03125 0l0 -1.09375l1.03125 0l0 -2.0625l1.40625 -0.84375l0 2.90625l1.40625 0l0 1.09375l-1.40625 0l0 4.84375q0 0.609375 0.0625 0.78125q0.078125 0.171875 0.25 0.28125q0.171875 0.09375 0.484375 0.09375q0.234375 0 0.609375 -0.0625zm7.0546875 -1.40625l1.453125 0.171875q-0.34375 1.28125 -1.28125 1.984375q-0.921875 0.703125 -2.359375 0.703125q-1.828125 0 -2.890625 -1.125q-1.0625 -1.125 -1.0625 -3.140625q0 -2.09375 1.078125 -3.25q1.078125 -1.15625 2.796875 -1.15625q1.65625 0 2.703125 1.140625q1.0625 1.125 1.0625 3.171875q0 0.125 0 0.375l-6.1875 0q0.078125 1.375 0.765625 2.109375q0.703125 0.71875 1.734375 0.71875q0.78125 0 1.328125 -0.40625q0.546875 -0.40625 0.859375 -1.296875zm-4.609375 -2.28125l4.625 0q-0.09375 -1.046875 -0.53125 -1.5625q-0.671875 -0.8125 -1.734375 -0.8125q-0.96875 0 -1.640625 0.65625q-0.65625 0.640625 -0.71875 1.71875zm7.8203125 4.953125l0 -8.296875l1.265625 0l0 1.25q0.484375 -0.875 0.890625 -1.15625q0.40625 -0.28125 0.90625 -0.28125q0.703125 0 1.4375 0.453125l-0.484375 1.296875q-0.515625 -0.296875 -1.03125 -0.296875q-0.453125 0 -0.828125 0.28125q-0.359375 0.265625 -0.515625 0.765625q-0.234375 0.75 -0.234375 1.640625l0 4.34375l-1.40625 0zm11.015625 -2.671875l1.453125 0.171875q-0.34375 1.28125 -1.28125 1.984375q-0.921875 0.703125 -2.359375 0.703125q-1.828125 0 -2.890625 -1.125q-1.0625 -1.125 -1.0625 -3.140625q0 -2.09375 1.078125 -3.25q1.078125 -1.15625 2.796875 -1.15625q1.65625 0 2.703125 1.140625q1.0625 1.125 1.0625 3.171875q0 0.125 0 0.375l-6.1875 0q0.078125 1.375 0.765625 2.109375q0.703125 0.71875 1.734375 0.71875q0.78125 0 1.328125 -0.40625q0.546875 -0.40625 0.859375 -1.296875zm-4.609375 -2.28125l4.625 0q-0.09375 -1.046875 -0.53125 -1.5625q-0.671875 -0.8125 -1.734375 -0.8125q-0.96875 0 -1.640625 0.65625q-0.65625 0.640625 -0.71875 1.71875zm7.8359375 4.953125l0 -8.296875l1.265625 0l0 1.171875q0.90625 -1.359375 2.640625 -1.359375q0.75 0 1.375 0.265625q0.625 0.265625 0.9375 0.703125q0.3125 0.4375 0.4375 1.046875q0.078125 0.390625 0.078125 1.359375l0 5.109375l-1.40625 0l0 -5.046875q0 -0.859375 -0.171875 -1.28125q-0.15625 -0.4375 -0.578125 -0.6875q-0.40625 -0.25 -0.96875 -0.25q-0.90625 0 -1.5625 0.578125q-0.640625 0.5625 -0.640625 2.15625l0 4.53125l-1.40625 0zm14.2734375 0l0 -1.046875q-0.78125 1.234375 -2.3125 1.234375q-1.0 0 -1.828125 -0.546875q-0.828125 -0.546875 -1.296875 -1.53125q-0.453125 -0.984375 -0.453125 -2.25q0 -1.25 0.40625 -2.25q0.421875 -1.015625 1.25 -1.546875q0.828125 -0.546875 1.859375 -0.546875q0.75 0 1.328125 0.3125q0.59375 0.3125 0.953125 0.828125l0 -4.109375l1.40625 0l0 11.453125l-1.3125 0zm-4.4375 -4.140625q0 1.59375 0.671875 2.390625q0.671875 0.78125 1.578125 0.78125q0.921875 0 1.5625 -0.75q0.65625 -0.765625 0.65625 -2.3125q0 -1.703125 -0.65625 -2.5q-0.65625 -0.796875 -1.625 -0.796875q-0.9375 0 -1.5625 0.765625q-0.625 0.765625 -0.625 2.421875zm13.6328125 1.46875l1.453125 0.171875q-0.34375 1.28125 -1.28125 1.984375q-0.921875 0.703125 -2.359375 0.703125q-1.828125 0 -2.890625 -1.125q-1.0625 -1.125 -1.0625 -3.140625q0 -2.09375 1.078125 -3.25q1.078125 -1.15625 2.796875 -1.15625q1.65625 0 2.703125 1.140625q1.0625 1.125 1.0625 3.171875q0 0.125 0 0.375l-6.1875 0q0.078125 1.375 0.765625 2.109375q0.703125 0.71875 1.734375 0.71875q0.78125 0 1.328125 -0.40625q0.546875 -0.40625 0.859375 -1.296875zm-4.609375 -2.28125l4.625 0q-0.09375 -1.046875 -0.53125 -1.5625q-0.671875 -0.8125 -1.734375 -0.8125q-0.96875 0 -1.640625 0.65625q-0.65625 0.640625 -0.71875 1.71875zm12.28125 8.140625l0 -11.484375l1.28125 0l0 1.078125q0.453125 -0.640625 1.015625 -0.953125q0.578125 -0.3125 1.390625 -0.3125q1.0625 0 1.875 0.546875q0.8125 0.546875 1.21875 1.546875q0.421875 0.984375 0.421875 2.171875q0 1.28125 -0.46875 2.296875q-0.453125 1.015625 -1.328125 1.5625q-0.859375 0.546875 -1.828125 0.546875q-0.703125 0 -1.265625 -0.296875q-0.546875 -0.296875 -0.90625 -0.75l0 4.046875l-1.40625 0zm1.265625 -7.296875q0 1.609375 0.640625 2.375q0.65625 0.765625 1.578125 0.765625q0.9375 0 1.609375 -0.796875q0.671875 -0.796875 0.671875 -2.453125q0 -1.59375 -0.65625 -2.375q-0.65625 -0.796875 -1.5625 -0.796875q-0.890625 0 -1.59375 0.84375q-0.6875 0.84375 -0.6875 2.4375zm7.6015625 4.109375l0 -11.453125l1.40625 0l0 11.453125l-1.40625 0zm8.9921875 -1.03125q-0.78125 0.671875 -1.5 0.953125q-0.71875 0.265625 -1.546875 0.265625q-1.375 0 -2.109375 -0.671875q-0.734375 -0.671875 -0.734375 -1.703125q0 -0.609375 0.28125 -1.109375q0.28125 -0.515625 0.71875 -0.8125q0.453125 -0.3125 1.015625 -0.46875q0.421875 -0.109375 1.25 -0.203125q1.703125 -0.203125 2.515625 -0.484375q0 -0.296875 0 -0.375q0 -0.859375 -0.390625 -1.203125q-0.546875 -0.484375 -1.609375 -0.484375q-0.984375 0 -1.46875 0.359375q-0.46875 0.34375 -0.6875 1.21875l-1.375 -0.1875q0.1875 -0.875 0.609375 -1.421875q0.4375 -0.546875 1.25 -0.828125q0.8125 -0.296875 1.875 -0.296875q1.0625 0 1.71875 0.25q0.671875 0.25 0.984375 0.625q0.3125 0.375 0.4375 0.953125q0.078125 0.359375 0.078125 1.296875l0 1.875q0 1.96875 0.078125 2.484375q0.09375 0.515625 0.359375 1.0l-1.46875 0q-0.21875 -0.4375 -0.28125 -1.03125zm-0.109375 -3.140625q-0.765625 0.3125 -2.296875 0.53125q-0.875 0.125 -1.234375 0.28125q-0.359375 0.15625 -0.5625 0.46875q-0.1875 0.296875 -0.1875 0.65625q0 0.5625 0.421875 0.9375q0.4375 0.375 1.25 0.375q0.8125 0 1.4375 -0.34375q0.640625 -0.359375 0.9375 -0.984375q0.234375 -0.46875 0.234375 -1.40625l0 -0.515625zm3.0390625 1.6875l1.390625 -0.21875q0.109375 0.84375 0.640625 1.296875q0.546875 0.4375 1.5 0.4375q0.96875 0 1.4375 -0.390625q0.46875 -0.40625 0.46875 -0.9375q0 -0.46875 -0.40625 -0.75q-0.296875 -0.1875 -1.4375 -0.46875q-1.546875 -0.390625 -2.15625 -0.671875q-0.59375 -0.296875 -0.90625 -0.796875q-0.296875 -0.5 -0.296875 -1.109375q0 -0.5625 0.25 -1.03125q0.25 -0.46875 0.6875 -0.78125q0.328125 -0.25 0.890625 -0.40625q0.578125 -0.171875 1.21875 -0.171875q0.984375 0 1.71875 0.28125q0.734375 0.28125 1.078125 0.765625q0.359375 0.46875 0.5 1.28125l-1.375 0.1875q-0.09375 -0.640625 -0.546875 -1.0q-0.453125 -0.359375 -1.265625 -0.359375q-0.96875 0 -1.390625 0.328125q-0.40625 0.3125 -0.40625 0.734375q0 0.28125 0.171875 0.5q0.171875 0.21875 0.53125 0.375q0.21875 0.078125 1.25 0.359375q1.484375 0.390625 2.078125 0.65625q0.59375 0.25 0.921875 0.734375q0.34375 0.484375 0.34375 1.203125q0 0.703125 -0.421875 1.328125q-0.40625 0.609375 -1.1875 0.953125q-0.765625 0.34375 -1.734375 0.34375q-1.625 0 -2.46875 -0.671875q-0.84375 -0.671875 -1.078125 -2.0zm8.0 0l1.390625 -0.21875q0.109375 0.84375 0.640625 1.296875q0.546875 0.4375 1.5 0.4375q0.96875 0 1.4375 -0.390625q0.46875 -0.40625 0.46875 -0.9375q0 -0.46875 -0.40625 -0.75q-0.296875 -0.1875 -1.4375 -0.46875q-1.546875 -0.390625 -2.15625 -0.671875q-0.59375 -0.296875 -0.90625 -0.796875q-0.296875 -0.5 -0.296875 -1.109375q0 -0.5625 0.25 -1.03125q0.25 -0.46875 0.6875 -0.78125q0.328125 -0.25 0.890625 -0.40625q0.578125 -0.171875 1.21875 -0.171875q0.984375 0 1.71875 0.28125q0.734375 0.28125 1.078125 0.765625q0.359375 0.46875 0.5 1.28125l-1.375 0.1875q-0.09375 -0.640625 -0.546875 -1.0q-0.453125 -0.359375 -1.265625 -0.359375q-0.96875 0 -1.390625 0.328125q-0.40625 0.3125 -0.40625 0.734375q0 0.28125 0.171875 0.5q0.171875 0.21875 0.53125 0.375q0.21875 0.078125 1.25 0.359375q1.484375 0.390625 2.078125 0.65625q0.59375 0.25 0.921875 0.734375q0.34375 0.484375 0.34375 1.203125q0 0.703125 -0.421875 1.328125q-0.40625 0.609375 -1.1875 0.953125q-0.765625 0.34375 -1.734375 0.34375q-1.625 0 -2.46875 -0.671875q-0.84375 -0.671875 -1.078125 -2.0zm12.4609375 -0.953125l0 -1.421875l4.3125 0l0 1.421875l-4.3125 0zm13.28125 -1.578125l-7.59375 3.25l0 -1.40625l6.015625 -2.484375l-6.015625 -2.46875l0 -1.40625l7.59375 3.203125l0 1.3125z" fill-rule="nonzero"></path><path fill="#000000" fill-opacity="0.0" d="m168.0 296.0l208.0 0l0 48.0l-208.0 0z" fill-rule="nonzero"></path><path fill="#000000" d="m213.125 325.28125l0 -2.75l-4.96875 0l0 -1.28125l5.234375 -7.421875l1.140625 0l0 7.421875l1.546875 0l0 1.28125l-1.546875 0l0 2.75l-1.40625 0zm0 -4.03125l0 -5.171875l-3.578125 5.171875l3.578125 0zm4.3984375 -1.625q0 -2.03125 0.40625 -3.265625q0.421875 -1.234375 1.25 -1.90625q0.828125 -0.671875 2.078125 -0.671875q0.921875 0 1.609375 0.375q0.703125 0.359375 1.15625 1.0625q0.453125 0.703125 0.703125 1.703125q0.265625 1.0 0.265625 2.703125q0 2.015625 -0.421875 3.265625q-0.40625 1.234375 -1.234375 1.921875q-0.828125 0.671875 -2.078125 0.671875q-1.65625 0 -2.609375 -1.203125q-1.125 -1.421875 -1.125 -4.65625zm1.4375 0q0 2.828125 0.65625 3.765625q0.671875 0.921875 1.640625 0.921875q0.96875 0 1.625 -0.9375q0.65625 -0.9375 0.65625 -3.75q0 -2.828125 -0.65625 -3.75q-0.65625 -0.9375 -1.640625 -0.9375q-0.96875 0 -1.546875 0.828125q-0.734375 1.046875 -0.734375 3.859375zm7.4609375 0q0 -2.03125 0.40625 -3.265625q0.421875 -1.234375 1.25 -1.90625q0.828125 -0.671875 2.078125 -0.671875q0.921875 0 1.609375 0.375q0.703125 0.359375 1.15625 1.0625q0.453125 0.703125 0.703125 1.703125q0.265625 1.0 0.265625 2.703125q0 2.015625 -0.421875 3.265625q-0.40625 1.234375 -1.234375 1.921875q-0.828125 0.671875 -2.078125 0.671875q-1.65625 0 -2.609375 -1.203125q-1.125 -1.421875 -1.125 -4.65625zm1.4375 0q0 2.828125 0.65625 3.765625q0.671875 0.921875 1.640625 0.921875q0.96875 0 1.625 -0.9375q0.65625 -0.9375 0.65625 -3.75q0 -2.828125 -0.65625 -3.75q-0.65625 -0.9375 -1.640625 -0.9375q-0.96875 0 -1.546875 0.828125q-0.734375 1.046875 -0.734375 3.859375zm7.8515625 8.84375l0 -11.484375l1.28125 0l0 1.078125q0.453125 -0.640625 1.015625 -0.953125q0.578125 -0.3125 1.390625 -0.3125q1.0625 0 1.875 0.546875q0.8125 0.546875 1.21875 1.546875q0.421875 0.984375 0.421875 2.171875q0 1.28125 -0.46875 2.296875q-0.453125 1.015625 -1.328125 1.5625q-0.859375 0.546875 -1.828125 0.546875q-0.703125 0 -1.265625 -0.296875q-0.546875 -0.296875 -0.90625 -0.75l0 4.046875l-1.40625 0zm1.265625 -7.296875q0 1.609375 0.640625 2.375q0.65625 0.765625 1.578125 0.765625q0.9375 0 1.609375 -0.796875q0.671875 -0.796875 0.671875 -2.453125q0 -1.59375 -0.65625 -2.375q-0.65625 -0.796875 -1.5625 -0.796875q-0.890625 0 -1.59375 0.84375q-0.6875 0.84375 -0.6875 2.4375zm6.6953125 4.109375l3.03125 -4.3125l-2.8125 -3.984375l1.765625 0l1.265625 1.9375q0.359375 0.5625 0.578125 0.9375q0.34375 -0.515625 0.640625 -0.921875l1.390625 -1.953125l1.6875 0l-2.875 3.90625l3.09375 4.390625l-1.734375 0l-1.703125 -2.578125l-0.453125 -0.703125l-2.171875 3.28125l-1.703125 0zm13.7109375 0l0 -7.203125l-1.234375 0l0 -1.09375l1.234375 0l0 -0.890625q0 -0.828125 0.15625 -1.234375q0.203125 -0.546875 0.703125 -0.890625q0.515625 -0.34375 1.4375 -0.34375q0.59375 0 1.3125 0.140625l-0.203125 1.234375q-0.4375 -0.078125 -0.828125 -0.078125q-0.640625 0 -0.90625 0.28125q-0.265625 0.265625 -0.265625 1.015625l0 0.765625l1.609375 0l0 1.09375l-1.609375 0l0 7.203125l-1.40625 0zm9.5234375 -1.03125q-0.78125 0.671875 -1.5 0.953125q-0.71875 0.265625 -1.546875 0.265625q-1.375 0 -2.109375 -0.671875q-0.734375 -0.671875 -0.734375 -1.703125q0 -0.609375 0.28125 -1.109375q0.28125 -0.515625 0.71875 -0.8125q0.453125 -0.3125 1.015625 -0.46875q0.421875 -0.109375 1.25 -0.203125q1.703125 -0.203125 2.515625 -0.484375q0 -0.296875 0 -0.375q0 -0.859375 -0.390625 -1.203125q-0.546875 -0.484375 -1.609375 -0.484375q-0.984375 0 -1.46875 0.359375q-0.46875 0.34375 -0.6875 1.21875l-1.375 -0.1875q0.1875 -0.875 0.609375 -1.421875q0.4375 -0.546875 1.25 -0.828125q0.8125 -0.296875 1.875 -0.296875q1.0625 0 1.71875 0.25q0.671875 0.25 0.984375 0.625q0.3125 0.375 0.4375 0.953125q0.078125 0.359375 0.078125 1.296875l0 1.875q0 1.96875 0.078125 2.484375q0.09375 0.515625 0.359375 1.0l-1.46875 0q-0.21875 -0.4375 -0.28125 -1.03125zm-0.109375 -3.140625q-0.765625 0.3125 -2.296875 0.53125q-0.875 0.125 -1.234375 0.28125q-0.359375 0.15625 -0.5625 0.46875q-0.1875 0.296875 -0.1875 0.65625q0 0.5625 0.421875 0.9375q0.4375 0.375 1.25 0.375q0.8125 0 1.4375 -0.34375q0.640625 -0.359375 0.9375 -0.984375q0.234375 -0.46875 0.234375 -1.40625l0 -0.515625zm3.0390625 1.6875l1.390625 -0.21875q0.109375 0.84375 0.640625 1.296875q0.546875 0.4375 1.5 0.4375q0.96875 0 1.4375 -0.390625q0.46875 -0.40625 0.46875 -0.9375q0 -0.46875 -0.40625 -0.75q-0.296875 -0.1875 -1.4375 -0.46875q-1.546875 -0.390625 -2.15625 -0.671875q-0.59375 -0.296875 -0.90625 -0.796875q-0.296875 -0.5 -0.296875 -1.109375q0 -0.5625 0.25 -1.03125q0.25 -0.46875 0.6875 -0.78125q0.328125 -0.25 0.890625 -0.40625q0.578125 -0.171875 1.21875 -0.171875q0.984375 0 1.71875 0.28125q0.734375 0.28125 1.078125 0.765625q0.359375 0.46875 0.5 1.28125l-1.375 0.1875q-0.09375 -0.640625 -0.546875 -1.0q-0.453125 -0.359375 -1.265625 -0.359375q-0.96875 0 -1.390625 0.328125q-0.40625 0.3125 -0.40625 0.734375q0 0.28125 0.171875 0.5q0.171875 0.21875 0.53125 0.375q0.21875 0.078125 1.25 0.359375q1.484375 0.390625 2.078125 0.65625q0.59375 0.25 0.921875 0.734375q0.34375 0.484375 0.34375 1.203125q0 0.703125 -0.421875 1.328125q-0.40625 0.609375 -1.1875 0.953125q-0.765625 0.34375 -1.734375 0.34375q-1.625 0 -2.46875 -0.671875q-0.84375 -0.671875 -1.078125 -2.0zm11.625 1.21875l0.203125 1.25q-0.59375 0.125 -1.0625 0.125q-0.765625 0 -1.1875 -0.234375q-0.421875 -0.25 -0.59375 -0.640625q-0.171875 -0.40625 -0.171875 -1.671875l0 -4.765625l-1.03125 0l0 -1.09375l1.03125 0l0 -2.0625l1.40625 -0.84375l0 2.90625l1.40625 0l0 1.09375l-1.40625 0l0 4.84375q0 0.609375 0.0625 0.78125q0.078125 0.171875 0.25 0.28125q0.171875 0.09375 0.484375 0.09375q0.234375 0 0.609375 -0.0625zm7.125 1.265625l-1.3125 0l0 -11.453125l1.40625 0l0 4.078125q0.890625 -1.109375 2.28125 -1.109375q0.765625 0 1.4375 0.3125q0.6875 0.296875 1.125 0.859375q0.453125 0.5625 0.703125 1.359375q0.25 0.78125 0.25 1.671875q0 2.140625 -1.0625 3.3125q-1.046875 1.15625 -2.53125 1.15625q-1.46875 0 -2.296875 -1.234375l0 1.046875zm-0.015625 -4.21875q0 1.5 0.40625 2.15625q0.65625 1.09375 1.796875 1.09375q0.921875 0 1.59375 -0.796875q0.671875 -0.8125 0.671875 -2.390625q0 -1.625 -0.65625 -2.390625q-0.640625 -0.78125 -1.546875 -0.78125q-0.921875 0 -1.59375 0.796875q-0.671875 0.796875 -0.671875 2.3125zm7.6015625 4.21875l0 -8.296875l1.265625 0l0 1.25q0.484375 -0.875 0.890625 -1.15625q0.40625 -0.28125 0.90625 -0.28125q0.703125 0 1.4375 0.453125l-0.484375 1.296875q-0.515625 -0.296875 -1.03125 -0.296875q-0.453125 0 -0.828125 0.28125q-0.359375 0.265625 -0.515625 0.765625q-0.234375 0.75 -0.234375 1.640625l0 4.34375l-1.40625 0zm11.015625 -2.671875l1.453125 0.171875q-0.34375 1.28125 -1.28125 1.984375q-0.921875 0.703125 -2.359375 0.703125q-1.828125 0 -2.890625 -1.125q-1.0625 -1.125 -1.0625 -3.140625q0 -2.09375 1.078125 -3.25q1.078125 -1.15625 2.796875 -1.15625q1.65625 0 2.703125 1.140625q1.0625 1.125 1.0625 3.171875q0 0.125 0 0.375l-6.1875 0q0.078125 1.375 0.765625 2.109375q0.703125 0.71875 1.734375 0.71875q0.78125 0 1.328125 -0.40625q0.546875 -0.40625 0.859375 -1.296875zm-4.609375 -2.28125l4.625 0q-0.09375 -1.046875 -0.53125 -1.5625q-0.671875 -0.8125 -1.734375 -0.8125q-0.96875 0 -1.640625 0.65625q-0.65625 0.640625 -0.71875 1.71875zm13.2109375 4.953125l0 -1.046875q-0.78125 1.234375 -2.3125 1.234375q-1.0 0 -1.828125 -0.546875q-0.828125 -0.546875 -1.296875 -1.53125q-0.453125 -0.984375 -0.453125 -2.25q0 -1.25 0.40625 -2.25q0.421875 -1.015625 1.25 -1.546875q0.828125 -0.546875 1.859375 -0.546875q0.75 0 1.328125 0.3125q0.59375 0.3125 0.953125 0.828125l0 -4.109375l1.40625 0l0 11.453125l-1.3125 0zm-4.4375 -4.140625q0 1.59375 0.671875 2.390625q0.671875 0.78125 1.578125 0.78125q0.921875 0 1.5625 -0.75q0.65625 -0.765625 0.65625 -2.3125q0 -1.703125 -0.65625 -2.5q-0.65625 -0.796875 -1.625 -0.796875q-0.9375 0 -1.5625 0.765625q-0.625 0.765625 -0.625 2.421875zm13.3359375 4.140625l0 -1.046875q-0.78125 1.234375 -2.3125 1.234375q-1.0 0 -1.828125 -0.546875q-0.828125 -0.546875 -1.296875 -1.53125q-0.453125 -0.984375 -0.453125 -2.25q0 -1.25 0.40625 -2.25q0.421875 -1.015625 1.25 -1.546875q0.828125 -0.546875 1.859375 -0.546875q0.75 0 1.328125 0.3125q0.59375 0.3125 0.953125 0.828125l0 -4.109375l1.40625 0l0 11.453125l-1.3125 0zm-4.4375 -4.140625q0 1.59375 0.671875 2.390625q0.671875 0.78125 1.578125 0.78125q0.921875 0 1.5625 -0.75q0.65625 -0.765625 0.65625 -2.3125q0 -1.703125 -0.65625 -2.5q-0.65625 -0.796875 -1.625 -0.796875q-0.9375 0 -1.5625 0.765625q-0.625 0.765625 -0.625 2.421875zm13.6328125 1.46875l1.453125 0.171875q-0.34375 1.28125 -1.28125 1.984375q-0.921875 0.703125 -2.359375 0.703125q-1.828125 0 -2.890625 -1.125q-1.0625 -1.125 -1.0625 -3.140625q0 -2.09375 1.078125 -3.25q1.078125 -1.15625 2.796875 -1.15625q1.65625 0 2.703125 1.140625q1.0625 1.125 1.0625 3.171875q0 0.125 0 0.375l-6.1875 0q0.078125 1.375 0.765625 2.109375q0.703125 0.71875 1.734375 0.71875q0.78125 0 1.328125 -0.40625q0.546875 -0.40625 0.859375 -1.296875zm-4.609375 -2.28125l4.625 0q-0.09375 -1.046875 -0.53125 -1.5625q-0.671875 -0.8125 -1.734375 -0.8125q-0.96875 0 -1.640625 0.65625q-0.65625 0.640625 -0.71875 1.71875z" fill-rule="nonzero"></path><path fill="#000000" fill-opacity="0.0" d="m248.0 120.0l680.0 0" fill-rule="nonzero"></path><path stroke="#000000" stroke-width="2.0" stroke-linejoin="round" stroke-linecap="butt" d="m248.0 120.0l668.0 0" fill-rule="evenodd"></path><path fill="#000000" stroke="#000000" stroke-width="2.0" stroke-linecap="butt" d="m916.0 123.30347l9.076172 -3.3034668l-9.076172 -3.3034668z" fill-rule="evenodd"></path><path fill="#000000" fill-opacity="0.0" d="m248.0 120.0l-120.00001 0" fill-rule="nonzero"></path><path stroke="#000000" stroke-width="2.0" stroke-linejoin="round" stroke-linecap="butt" d="m248.0 120.0l-108.0 0" fill-rule="evenodd"></path><path fill="#000000" stroke="#000000" stroke-width="2.0" stroke-linecap="butt" d="m140.0 116.69653l-9.076202 3.3034668l9.076202 3.3034668z" fill-rule="evenodd"></path><path fill="#000000" fill-opacity="0.0" d="m408.0 80.0l216.0 0l0 32.0l-216.0 0z" fill-rule="nonzero"></path><path fill="#000000" d="m433.46484 101.28125l0 -8.296875l1.25 0l0 1.15625q0.390625 -0.609375 1.03125 -0.96875q0.65625 -0.375 1.484375 -0.375q0.921875 0 1.515625 0.390625q0.59375 0.375 0.828125 1.0625q0.984375 -1.453125 2.5625 -1.453125q1.234375 0 1.890625 0.6875q0.671875 0.671875 0.671875 2.09375l0 5.703125l-1.390625 0l0 -5.234375q0 -0.84375 -0.140625 -1.203125q-0.140625 -0.375 -0.5 -0.59375q-0.359375 -0.234375 -0.84375 -0.234375q-0.875 0 -1.453125 0.578125q-0.578125 0.578125 -0.578125 1.859375l0 4.828125l-1.40625 0l0 -5.390625q0 -0.9375 -0.34375 -1.40625q-0.34375 -0.46875 -1.125 -0.46875q-0.59375 0 -1.09375 0.3125q-0.5 0.3125 -0.734375 0.921875q-0.21875 0.59375 -0.21875 1.71875l0 4.3125l-1.40625 0zm13.328125 -9.84375l0 -1.609375l1.40625 0l0 1.609375l-1.40625 0zm0 9.84375l0 -8.296875l1.40625 0l0 8.296875l-1.40625 0zm3.5546875 0l0 -8.296875l1.265625 0l0 1.171875q0.90625 -1.359375 2.640625 -1.359375q0.75 0 1.375 0.265625q0.625 0.265625 0.9375 0.703125q0.3125 0.4375 0.4375 1.046875q0.078125 0.390625 0.078125 1.359375l0 5.109375l-1.40625 0l0 -5.046875q0 -0.859375 -0.171875 -1.28125q-0.15625 -0.4375 -0.578125 -0.6875q-0.40625 -0.25 -0.96875 -0.25q-0.90625 0 -1.5625 0.578125q-0.640625 0.5625 -0.640625 2.15625l0 4.53125l-1.40625 0zm8.8984375 -9.84375l0 -1.609375l1.40625 0l0 1.609375l-1.40625 0zm0 9.84375l0 -8.296875l1.40625 0l0 8.296875l-1.40625 0zm3.5546875 0l0 -8.296875l1.25 0l0 1.15625q0.390625 -0.609375 1.03125 -0.96875q0.65625 -0.375 1.484375 -0.375q0.921875 0 1.515625 0.390625q0.59375 0.375 0.828125 1.0625q0.984375 -1.453125 2.5625 -1.453125q1.234375 0 1.890625 0.6875q0.671875 0.671875 0.671875 2.09375l0 5.703125l-1.390625 0l0 -5.234375q0 -0.84375 -0.140625 -1.203125q-0.140625 -0.375 -0.5 -0.59375q-0.359375 -0.234375 -0.84375 -0.234375q-0.875 0 -1.453125 0.578125q-0.578125 0.578125 -0.578125 1.859375l0 4.828125l-1.40625 0l0 -5.390625q0 -0.9375 -0.34375 -1.40625q-0.34375 -0.46875 -1.125 -0.46875q-0.59375 0 -1.09375 0.3125q-0.5 0.3125 -0.734375 0.921875q-0.21875 0.59375 -0.21875 1.71875l0 4.3125l-1.40625 0zm18.765625 0l0 -1.21875q-0.96875 1.40625 -2.640625 1.40625q-0.734375 0 -1.375 -0.28125q-0.625 -0.28125 -0.9375 -0.703125q-0.3125 -0.4375 -0.4375 -1.046875q-0.078125 -0.421875 -0.078125 -1.3125l0 -5.140625l1.40625 0l0 4.59375q0 1.109375 0.078125 1.484375q0.140625 0.5625 0.5625 0.875q0.4375 0.3125 1.0625 0.3125q0.640625 0 1.1875 -0.3125q0.5625 -0.328125 0.78125 -0.890625q0.234375 -0.5625 0.234375 -1.625l0 -4.4375l1.40625 0l0 8.296875l-1.25 0zm3.4609375 0l0 -8.296875l1.25 0l0 1.15625q0.390625 -0.609375 1.03125 -0.96875q0.65625 -0.375 1.484375 -0.375q0.921875 0 1.515625 0.390625q0.59375 0.375 0.828125 1.0625q0.984375 -1.453125 2.5625 -1.453125q1.234375 0 1.890625 0.6875q0.671875 0.671875 0.671875 2.09375l0 5.703125l-1.390625 0l0 -5.234375q0 -0.84375 -0.140625 -1.203125q-0.140625 -0.375 -0.5 -0.59375q-0.359375 -0.234375 -0.84375 -0.234375q-0.875 0 -1.453125 0.578125q-0.578125 0.578125 -0.578125 1.859375l0 4.828125l-1.40625 0l0 -5.390625q0 -0.9375 -0.34375 -1.40625q-0.34375 -0.46875 -1.125 -0.46875q-0.59375 0 -1.09375 0.3125q-0.5 0.3125 -0.734375 0.921875q-0.21875 0.59375 -0.21875 1.71875l0 4.3125l-1.40625 0zm17.585938 -2.65625l1.359375 -0.125q0.171875 0.953125 0.65625 1.390625q0.484375 0.421875 1.234375 0.421875q0.65625 0 1.140625 -0.296875q0.484375 -0.296875 0.796875 -0.78125q0.3125 -0.5 0.515625 -1.34375q0.21875 -0.84375 0.21875 -1.71875q0 -0.09375 0 -0.28125q-0.421875 0.671875 -1.15625 1.09375q-0.734375 0.40625 -1.578125 0.40625q-1.421875 0 -2.40625 -1.03125q-0.984375 -1.03125 -0.984375 -2.71875q0 -1.734375 1.015625 -2.796875q1.03125 -1.0625 2.578125 -1.0625q1.125 0 2.046875 0.609375q0.921875 0.59375 1.40625 1.703125q0.484375 1.109375 0.484375 3.21875q0 2.203125 -0.484375 3.5q-0.46875 1.296875 -1.421875 1.984375q-0.9375 0.6875 -2.203125 0.6875q-1.34375 0 -2.203125 -0.75q-0.84375 -0.75 -1.015625 -2.109375zm5.765625 -5.046875q0 -1.21875 -0.65625 -1.921875q-0.640625 -0.71875 -1.546875 -0.71875q-0.9375 0 -1.640625 0.765625q-0.6875 0.765625 -0.6875 1.984375q0 1.09375 0.65625 1.78125q0.671875 0.6875 1.640625 0.6875q0.96875 0 1.59375 -0.6875q0.640625 -0.6875 0.640625 -1.890625zm3.0234375 -2.25l0 -1.359375l7.40625 0l0 1.09375q-1.09375 1.171875 -2.171875 3.109375q-1.0625 1.921875 -1.65625 3.953125q-0.421875 1.4375 -0.53125 3.15625l-1.453125 0q0.03125 -1.359375 0.53125 -3.265625q0.515625 -1.921875 1.453125 -3.6875q0.953125 -1.78125 2.03125 -3.0l-5.609375 0zm10.9609375 3.734375q-0.875 -0.3125 -1.296875 -0.90625q-0.421875 -0.59375 -0.421875 -1.421875q0 -1.25 0.890625 -2.09375q0.90625 -0.859375 2.40625 -0.859375q1.5 0 2.40625 0.875q0.921875 0.859375 0.921875 2.109375q0 0.796875 -0.421875 1.390625q-0.421875 0.59375 -1.265625 0.90625q1.046875 0.34375 1.59375 1.109375q0.5625 0.765625 0.5625 1.828125q0 1.46875 -1.046875 2.484375q-1.03125 1.0 -2.734375 1.0q-1.6875 0 -2.734375 -1.0q-1.03125 -1.015625 -1.03125 -2.515625q0 -1.125 0.5625 -1.875q0.5625 -0.75 1.609375 -1.03125zm-0.28125 -2.375q0 0.8125 0.515625 1.328125q0.53125 0.515625 1.375 0.515625q0.8125 0 1.328125 -0.515625q0.515625 -0.515625 0.515625 -1.25q0 -0.78125 -0.53125 -1.296875q-0.53125 -0.53125 -1.328125 -0.53125q-0.8125 0 -1.34375 0.515625q-0.53125 0.515625 -0.53125 1.234375zm-0.453125 5.28125q0 0.609375 0.28125 1.171875q0.296875 0.5625 0.859375 0.875q0.5625 0.296875 1.203125 0.296875q1.015625 0 1.671875 -0.640625q0.65625 -0.65625 0.65625 -1.65625q0 -1.015625 -0.6875 -1.671875q-0.671875 -0.671875 -1.6875 -0.671875q-0.984375 0 -1.640625 0.65625q-0.65625 0.65625 -0.65625 1.640625zm7.8671875 6.5l0 -11.484375l1.28125 0l0 1.078125q0.453125 -0.640625 1.015625 -0.953125q0.578125 -0.3125 1.390625 -0.3125q1.0625 0 1.875 0.546875q0.8125 0.546875 1.21875 1.546875q0.421875 0.984375 0.421875 2.171875q0 1.28125 -0.46875 2.296875q-0.453125 1.015625 -1.328125 1.5625q-0.859375 0.546875 -1.828125 0.546875q-0.703125 0 -1.265625 -0.296875q-0.546875 -0.296875 -0.90625 -0.75l0 4.046875l-1.40625 0zm1.265625 -7.296875q0 1.609375 0.640625 2.375q0.65625 0.765625 1.578125 0.765625q0.9375 0 1.609375 -0.796875q0.671875 -0.796875 0.671875 -2.453125q0 -1.59375 -0.65625 -2.375q-0.65625 -0.796875 -1.5625 -0.796875q-0.890625 0 -1.59375 0.84375q-0.6875 0.84375 -0.6875 2.4375zm6.6953125 4.109375l3.03125 -4.3125l-2.8125 -3.984375l1.765625 0l1.265625 1.9375q0.359375 0.5625 0.578125 0.9375q0.34375 -0.515625 0.640625 -0.921875l1.390625 -1.953125l1.6875 0l-2.875 3.90625l3.09375 4.390625l-1.734375 0l-1.703125 -2.578125l-0.453125 -0.703125l-2.171875 3.28125l-1.703125 0zm14.6796875 0l-1.3125 0l0 -11.453125l1.40625 0l0 4.078125q0.890625 -1.109375 2.28125 -1.109375q0.765625 0 1.4375 0.3125q0.6875 0.296875 1.125 0.859375q0.453125 0.5625 0.703125 1.359375q0.25 0.78125 0.25 1.671875q0 2.140625 -1.0625 3.3125q-1.046875 1.15625 -2.53125 1.15625q-1.46875 0 -2.296875 -1.234375l0 1.046875zm-0.015625 -4.21875q0 1.5 0.40625 2.15625q0.65625 1.09375 1.796875 1.09375q0.921875 0 1.59375 -0.796875q0.671875 -0.8125 0.671875 -2.390625q0 -1.625 -0.65625 -2.390625q-0.640625 -0.78125 -1.546875 -0.78125q-0.921875 0 -1.59375 0.796875q-0.671875 0.796875 -0.671875 2.3125zm7.6015625 4.21875l0 -8.296875l1.265625 0l0 1.25q0.484375 -0.875 0.890625 -1.15625q0.40625 -0.28125 0.90625 -0.28125q0.703125 0 1.4375 0.453125l-0.484375 1.296875q-0.515625 -0.296875 -1.03125 -0.296875q-0.453125 0 -0.828125 0.28125q-0.359375 0.265625 -0.515625 0.765625q-0.234375 0.75 -0.234375 1.640625l0 4.34375l-1.40625 0zm11.015625 -2.671875l1.453125 0.171875q-0.34375 1.28125 -1.28125 1.984375q-0.921875 0.703125 -2.359375 0.703125q-1.828125 0 -2.890625 -1.125q-1.0625 -1.125 -1.0625 -3.140625q0 -2.09375 1.078125 -3.25q1.078125 -1.15625 2.796875 -1.15625q1.65625 0 2.703125 1.140625q1.0625 1.125 1.0625 3.171875q0 0.125 0 0.375l-6.1875 0q0.078125 1.375 0.765625 2.109375q0.703125 0.71875 1.734375 0.71875q0.78125 0 1.328125 -0.40625q0.546875 -0.40625 0.859375 -1.296875zm-4.609375 -2.28125l4.625 0q-0.09375 -1.046875 -0.53125 -1.5625q-0.671875 -0.8125 -1.734375 -0.8125q-0.96875 0 -1.640625 0.65625q-0.65625 0.640625 -0.71875 1.71875zm13.2109375 4.953125l0 -1.046875q-0.78125 1.234375 -2.3125 1.234375q-1.0 0 -1.828125 -0.546875q-0.828125 -0.546875 -1.296875 -1.53125q-0.453125 -0.984375 -0.453125 -2.25q0 -1.25 0.40625 -2.25q0.421875 -1.015625 1.25 -1.546875q0.828125 -0.546875 1.859375 -0.546875q0.75 0 1.328125 0.3125q0.59375 0.3125 0.953125 0.828125l0 -4.109375l1.40625 0l0 11.453125l-1.3125 0zm-4.4375 -4.140625q0 1.59375 0.671875 2.390625q0.671875 0.78125 1.578125 0.78125q0.921875 0 1.5625 -0.75q0.65625 -0.765625 0.65625 -2.3125q0 -1.703125 -0.65625 -2.5q-0.65625 -0.796875 -1.625 -0.796875q-0.9375 0 -1.5625 0.765625q-0.625 0.765625 -0.625 2.421875zm13.3359375 4.140625l0 -1.046875q-0.78125 1.234375 -2.3125 1.234375q-1.0 0 -1.828125 -0.546875q-0.828125 -0.546875 -1.296875 -1.53125q-0.453125 -0.984375 -0.453125 -2.25q0 -1.25 0.40625 -2.25q0.421875 -1.015625 1.25 -1.546875q0.828125 -0.546875 1.859375 -0.546875q0.75 0 1.328125 0.3125q0.59375 0.3125 0.953125 0.828125l0 -4.109375l1.40625 0l0 11.453125l-1.3125 0zm-4.4375 -4.140625q0 1.59375 0.671875 2.390625q0.671875 0.78125 1.578125 0.78125q0.921875 0 1.5625 -0.75q0.65625 -0.765625 0.65625 -2.3125q0 -1.703125 -0.65625 -2.5q-0.65625 -0.796875 -1.625 -0.796875q-0.9375 0 -1.5625 0.765625q-0.625 0.765625 -0.625 2.421875zm13.6328125 1.46875l1.453125 0.171875q-0.34375 1.28125 -1.28125 1.984375q-0.921875 0.703125 -2.359375 0.703125q-1.828125 0 -2.890625 -1.125q-1.0625 -1.125 -1.0625 -3.140625q0 -2.09375 1.078125 -3.25q1.078125 -1.15625 2.796875 -1.15625q1.65625 0 2.703125 1.140625q1.0625 1.125 1.0625 3.171875q0 0.125 0 0.375l-6.1875 0q0.078125 1.375 0.765625 2.109375q0.703125 0.71875 1.734375 0.71875q0.78125 0 1.328125 -0.40625q0.546875 -0.40625 0.859375 -1.296875zm-4.609375 -2.28125l4.625 0q-0.09375 -1.046875 -0.53125 -1.5625q-0.671875 -0.8125 -1.734375 -0.8125q-0.96875 0 -1.640625 0.65625q-0.65625 0.640625 -0.71875 1.71875z" fill-rule="nonzero"></path><path fill="#000000" fill-opacity="0.0" d="m448.0 544.0l160.0 0l0 16.0l-160.0 0z" fill-rule="nonzero"></path><path fill="#000000" d="m495.67804 553.78906l1.6875 -0.140625q0.125 1.015625 0.5625 1.671875q0.4375 0.65625 1.359375 1.0625q0.9375 0.40625 2.09375 0.40625q1.03125 0 1.8125 -0.3125q0.796875 -0.3125 1.1875 -0.84375q0.390625 -0.53125 0.390625 -1.15625q0 -0.640625 -0.375 -1.109375q-0.375 -0.484375 -1.234375 -0.8125q-0.546875 -0.21875 -2.421875 -0.65625q-1.875 -0.453125 -2.625 -0.859375q-0.96875 -0.515625 -1.453125 -1.265625q-0.46875 -0.75 -0.46875 -1.6875q0 -1.03125 0.578125 -1.921875q0.59375 -0.90625 1.703125 -1.359375q1.125 -0.46875 2.5 -0.46875q1.515625 0 2.671875 0.484375q1.15625 0.484375 1.765625 1.4375q0.625 0.9375 0.671875 2.140625l-1.71875 0.125q-0.140625 -1.28125 -0.953125 -1.9375q-0.796875 -0.671875 -2.359375 -0.671875q-1.625 0 -2.375 0.609375q-0.75 0.59375 -0.75 1.4375q0 0.734375 0.53125 1.203125q0.515625 0.46875 2.703125 0.96875q2.203125 0.5 3.015625 0.875q1.1875 0.546875 1.75 1.390625q0.578125 0.828125 0.578125 1.921875q0 1.09375 -0.625 2.0625q-0.625 0.953125 -1.796875 1.484375q-1.15625 0.53125 -2.609375 0.53125q-1.84375 0 -3.09375 -0.53125q-1.25 -0.546875 -1.96875 -1.625q-0.703125 -1.078125 -0.734375 -2.453125zm19.584167 1.203125l1.71875 0.21875q-0.40625 1.5 -1.515625 2.34375q-1.09375 0.828125 -2.8125 0.828125q-2.1562195 0 -3.4218445 -1.328125q-1.265625 -1.328125 -1.265625 -3.734375q0 -2.484375 1.265625 -3.859375q1.28125 -1.375 3.3280945 -1.375q1.984375 0 3.234375 1.34375q1.25 1.34375 1.25 3.796875q0 0.140625 -0.015625 0.4375l-7.3437195 0q0.09375 1.625 0.921875 2.484375q0.828125 0.859375 2.0624695 0.859375q0.90625 0 1.546875 -0.46875q0.65625 -0.484375 1.046875 -1.546875zm-5.4843445 -2.703125l5.4999695 0q-0.109375 -1.234375 -0.625 -1.859375q-0.796875 -0.96875 -2.078125 -0.96875q-1.1405945 0 -1.9374695 0.78125q-0.78125 0.765625 -0.859375 2.046875zm9.110077 5.875l0 -9.859375l1.5 0l0 1.40625q1.09375 -1.625 3.140625 -1.625q0.890625 0 1.640625 0.328125q0.75 0.3125 1.109375 0.84375q0.375 0.515625 0.53125 1.21875q0.09375 0.46875 0.09375 1.625l0 6.0625l-1.671875 0l0 -6.0q0 -1.015625 -0.203125 -1.515625q-0.1875 -0.515625 -0.6875 -0.8125q-0.5 -0.296875 -1.171875 -0.296875q-1.0625 0 -1.84375 0.671875q-0.765625 0.671875 -0.765625 2.578125l0 5.375l-1.671875 0zm14.031982 -1.5l0.234375 1.484375q-0.703125 0.140625 -1.265625 0.140625q-0.90625 0 -1.40625 -0.28125q-0.5 -0.296875 -0.703125 -0.75q-0.203125 -0.46875 -0.203125 -1.984375l0 -5.65625l-1.234375 0l0 -1.3125l1.234375 0l0 -2.4375l1.65625 -1.0l0 3.4375l1.6875 0l0 1.3125l-1.6875 0l0 5.75q0 0.71875 0.078125 0.921875q0.09375 0.203125 0.296875 0.328125q0.203125 0.125 0.578125 0.125q0.265625 0 0.734375 -0.078125zm1.5114136 1.5l0 -9.859375l1.5 0l0 1.5q0.578125 -1.046875 1.0625 -1.375q0.484375 -0.34375 1.078125 -0.34375q0.84375 0 1.71875 0.546875l-0.578125 1.546875q-0.609375 -0.359375 -1.234375 -0.359375q-0.546875 0 -0.984375 0.328125q-0.421875 0.328125 -0.609375 0.90625q-0.28125 0.890625 -0.28125 1.953125l0 5.15625l-1.671875 0zm12.9783325 -3.171875l1.71875 0.21875q-0.40625 1.5 -1.515625 2.34375q-1.09375 0.828125 -2.8125 0.828125q-2.15625 0 -3.421875 -1.328125q-1.265625 -1.328125 -1.265625 -3.734375q0 -2.484375 1.265625 -3.859375q1.28125 -1.375 3.328125 -1.375q1.984375 0 3.234375 1.34375q1.25 1.34375 1.25 3.796875q0 0.140625 -0.015625 0.4375l-7.34375 0q0.09375 1.625 0.921875 2.484375q0.828125 0.859375 2.0625 0.859375q0.90625 0 1.546875 -0.46875q0.65625 -0.484375 1.046875 -1.546875zm-5.484375 -2.703125l5.5 0q-0.109375 -1.234375 -0.625 -1.859375q-0.796875 -0.96875 -2.078125 -0.96875q-1.140625 0 -1.9375 0.78125q-0.78125 0.765625 -0.859375 2.046875zm9.094421 5.875l0 -9.859375l1.5 0l0 1.5q0.578125 -1.046875 1.0625 -1.375q0.484375 -0.34375 1.078125 -0.34375q0.84375 0 1.71875 0.546875l-0.578125 1.546875q-0.609375 -0.359375 -1.234375 -0.359375q-0.546875 0 -0.984375 0.328125q-0.421875 0.328125 -0.609375 0.90625q-0.28125 0.890625 -0.28125 1.953125l0 5.15625l-1.671875 0zm9.8845825 -1.5l0.234375 1.484375q-0.703125 0.140625 -1.265625 0.140625q-0.90625 0 -1.40625 -0.28125q-0.5 -0.296875 -0.703125 -0.75q-0.203125 -0.46875 -0.203125 -1.984375l0 -5.65625l-1.234375 0l0 -1.3125l1.234375 0l0 -2.4375l1.65625 -1.0l0 3.4375l1.6875 0l0 1.3125l-1.6875 0l0 5.75q0 0.71875 0.078125 0.921875q0.09375 0.203125 0.296875 0.328125q0.203125 0.125 0.578125 0.125q0.265625 0 0.734375 -0.078125z" fill-rule="nonzero"></path><path fill="#cfe2f3" d="m672.0 200.0l248.0 0l0 192.0l-248.0 0z" fill-rule="nonzero"></path><path stroke="#000000" stroke-width="2.0" stroke-linejoin="round" stroke-linecap="butt" d="m672.0 200.0l248.0 0l0 192.0l-248.0 0z" fill-rule="nonzero"></path><path fill="#000000" d="m699.9281 302.16406l0 -13.59375l1.796875 0l0 11.984375l6.703125 0l0 1.609375l-8.5 0zm9.610107 -4.921875q0 -2.734375 1.53125 -4.0625q1.265625 -1.09375 3.09375 -1.09375q2.03125 0 3.3125 1.34375q1.296875 1.328125 1.296875 3.671875q0 1.90625 -0.578125 3.0q-0.5625 1.078125 -1.65625 1.6875q-1.078125 0.59375 -2.375 0.59375q-2.0625 0 -3.34375 -1.328125q-1.28125 -1.328125 -1.28125 -3.8125zm1.71875 0q0 1.890625 0.828125 2.828125q0.828125 0.9375 2.078125 0.9375q1.25 0 2.0625 -0.9375q0.828125 -0.953125 0.828125 -2.890625q0 -1.828125 -0.828125 -2.765625q-0.828125 -0.9375 -2.0625 -0.9375q-1.25 0 -2.078125 0.9375q-0.828125 0.9375 -0.828125 2.828125zm9.266357 4.921875l0 -9.859375l1.5 0l0 1.5q0.578125 -1.046875 1.0625 -1.375q0.484375 -0.34375 1.078125 -0.34375q0.84375 0 1.71875 0.546875l-0.578125 1.546875q-0.609375 -0.359375 -1.234375 -0.359375q-0.546875 0 -0.984375 0.328125q-0.421875 0.328125 -0.609375 0.90625q-0.28125 0.890625 -0.28125 1.953125l0 5.15625l-1.671875 0zm12.9782715 -3.171875l1.71875 0.21875q-0.40625 1.5 -1.515625 2.34375q-1.09375 0.828125 -2.8125 0.828125q-2.15625 0 -3.421875 -1.328125q-1.265625 -1.328125 -1.265625 -3.734375q0 -2.484375 1.265625 -3.859375q1.28125 -1.375 3.328125 -1.375q1.984375 0 3.234375 1.34375q1.25 1.34375 1.25 3.796875q0 0.140625 -0.015625 0.4375l-7.34375 0q0.09375 1.625 0.921875 2.484375q0.828125 0.859375 2.0625 0.859375q0.90625 0 1.546875 -0.46875q0.65625 -0.484375 1.046875 -1.546875zm-5.484375 -2.703125l5.5 0q-0.109375 -1.234375 -0.625 -1.859375q-0.796875 -0.96875 -2.078125 -0.96875q-1.140625 0 -1.9375 0.78125q-0.78125 0.765625 -0.859375 2.046875zm9.110107 5.875l0 -9.859375l1.5 0l0 1.390625q0.453125 -0.71875 1.21875 -1.15625q0.78125 -0.453125 1.765625 -0.453125q1.09375 0 1.796875 0.453125q0.703125 0.453125 0.984375 1.28125q1.171875 -1.734375 3.046875 -1.734375q1.46875 0 2.25 0.8125q0.796875 0.8125 0.796875 2.5l0 6.765625l-1.671875 0l0 -6.203125q0 -1.0 -0.15625 -1.4375q-0.15625 -0.453125 -0.59375 -0.71875q-0.421875 -0.265625 -1.0 -0.265625q-1.03125 0 -1.71875 0.6875q-0.6875 0.6875 -0.6875 2.21875l0 5.71875l-1.671875 0l0 -6.40625q0 -1.109375 -0.40625 -1.65625q-0.40625 -0.5625 -1.34375 -0.5625q-0.703125 0 -1.3125 0.375q-0.59375 0.359375 -0.859375 1.078125q-0.265625 0.71875 -0.265625 2.0625l0 5.109375l-1.671875 0zm20.692871 0l0 -13.59375l1.671875 0l0 13.59375l-1.671875 0zm4.1916504 -11.6875l0 -1.90625l1.671875 0l0 1.90625l-1.671875 0zm0 11.6875l0 -9.859375l1.671875 0l0 9.859375l-1.671875 0zm4.1292114 3.78125l0 -13.640625l1.53125 0l0 1.28125q0.53125 -0.75 1.203125 -1.125q0.6875 -0.375 1.640625 -0.375q1.265625 0 2.234375 0.65625q0.96875 0.640625 1.453125 1.828125q0.5 1.1875 0.5 2.59375q0 1.515625 -0.546875 2.734375q-0.546875 1.203125 -1.578125 1.84375q-1.03125 0.640625 -2.171875 0.640625q-0.84375 0 -1.515625 -0.34375q-0.65625 -0.359375 -1.078125 -0.890625l0 4.796875l-1.671875 0zm1.515625 -8.65625q0 1.90625 0.765625 2.8125q0.78125 0.90625 1.875 0.90625q1.109375 0 1.890625 -0.9375q0.796875 -0.9375 0.796875 -2.921875q0 -1.875 -0.78125 -2.8125q-0.765625 -0.9375 -1.84375 -0.9375q-1.0625 0 -1.890625 1.0q-0.8125 1.0 -0.8125 2.890625zm8.188232 1.9375l1.65625 -0.265625q0.140625 1.0 0.765625 1.53125q0.640625 0.515625 1.78125 0.515625q1.15625 0 1.703125 -0.46875q0.5625 -0.46875 0.5625 -1.09375q0 -0.5625 -0.484375 -0.890625q-0.34375 -0.21875 -1.703125 -0.5625q-1.84375 -0.46875 -2.5625 -0.796875q-0.703125 -0.34375 -1.078125 -0.9375q-0.359375 -0.609375 -0.359375 -1.328125q0 -0.65625 0.296875 -1.21875q0.3125 -0.5625 0.828125 -0.9375q0.390625 -0.28125 1.0625 -0.484375q0.671875 -0.203125 1.4375 -0.203125q1.171875 0 2.046875 0.34375q0.875 0.328125 1.28125 0.90625q0.421875 0.5625 0.578125 1.515625l-1.625 0.21875q-0.109375 -0.75 -0.65625 -1.171875q-0.53125 -0.4375 -1.5 -0.4375q-1.15625 0 -1.640625 0.390625q-0.484375 0.375 -0.484375 0.875q0 0.328125 0.203125 0.59375q0.203125 0.265625 0.640625 0.4375q0.25 0.09375 1.46875 0.4375q1.765625 0.46875 2.46875 0.765625q0.703125 0.296875 1.09375 0.875q0.40625 0.578125 0.40625 1.4375q0 0.828125 -0.484375 1.578125q-0.484375 0.734375 -1.40625 1.140625q-0.921875 0.390625 -2.078125 0.390625q-1.921875 0 -2.9375 -0.796875q-1.0 -0.796875 -1.28125 -2.359375zm16.453125 2.9375l0 -1.453125q-1.140625 1.671875 -3.125 1.671875q-0.859375 0 -1.625 -0.328125q-0.75 -0.34375 -1.125 -0.84375q-0.359375 -0.5 -0.515625 -1.234375q-0.09375 -0.5 -0.09375 -1.5625l0 -6.109375l1.671875 0l0 5.46875q0 1.3125 0.09375 1.765625q0.15625 0.65625 0.671875 1.03125q0.515625 0.375 1.265625 0.375q0.75 0 1.40625 -0.375q0.65625 -0.390625 0.921875 -1.046875q0.28125 -0.671875 0.28125 -1.9375l0 -5.28125l1.671875 0l0 9.859375l-1.5 0zm3.9226074 0l0 -9.859375l1.5 0l0 1.390625q0.453125 -0.71875 1.21875 -1.15625q0.78125 -0.453125 1.765625 -0.453125q1.09375 0 1.796875 0.453125q0.703125 0.453125 0.984375 1.28125q1.171875 -1.734375 3.046875 -1.734375q1.46875 0 2.25 0.8125q0.796875 0.8125 0.796875 2.5l0 6.765625l-1.671875 0l0 -6.203125q0 -1.0 -0.15625 -1.4375q-0.15625 -0.453125 -0.59375 -0.71875q-0.421875 -0.265625 -1.0 -0.265625q-1.03125 0 -1.71875 0.6875q-0.6875 0.6875 -0.6875 2.21875l0 5.71875l-1.671875 0l0 -6.40625q0 -1.109375 -0.40625 -1.65625q-0.40625 -0.5625 -1.34375 -0.5625q-0.703125 0 -1.3125 0.375q-0.59375 0.359375 -0.859375 1.078125q-0.265625 0.71875 -0.265625 2.0625l0 5.109375l-1.671875 0zm24.38031 -1.5l0.234375 1.484375q-0.703125 0.140625 -1.265625 0.140625q-0.90625 0 -1.40625 -0.28125q-0.5 -0.296875 -0.703125 -0.75q-0.203125 -0.46875 -0.203125 -1.984375l0 -5.65625l-1.234375 0l0 -1.3125l1.234375 0l0 -2.4375l1.65625 -1.0l0 3.4375l1.6875 0l0 1.3125l-1.6875 0l0 5.75q0 0.71875 0.078125 0.921875q0.09375 0.203125 0.296875 0.328125q0.203125 0.125 0.578125 0.125q0.265625 0 0.734375 -0.078125zm8.2771 -1.671875l1.71875 0.21875q-0.40625 1.5 -1.515625 2.34375q-1.09375 0.828125 -2.8125 0.828125q-2.15625 0 -3.421875 -1.328125q-1.265625 -1.328125 -1.265625 -3.734375q0 -2.484375 1.265625 -3.859375q1.28125 -1.375 3.328125 -1.375q1.984375 0 3.234375 1.34375q1.25 1.34375 1.25 3.796875q0 0.140625 -0.015625 0.4375l-7.34375 0q0.09375 1.625 0.921875 2.484375q0.828125 0.859375 2.0625 0.859375q0.90625 0 1.546875 -0.46875q0.65625 -0.484375 1.046875 -1.546875zm-5.484375 -2.703125l5.5 0q-0.109375 -1.234375 -0.625 -1.859375q-0.796875 -0.96875 -2.078125 -0.96875q-1.140625 0 -1.9375 0.78125q-0.78125 0.765625 -0.859375 2.046875zm9.125732 5.875l0 -13.59375l1.671875 0l0 7.75l3.953125 -4.015625l2.15625 0l-3.765625 3.65625l4.140625 6.203125l-2.0625 0l-3.25 -5.03125l-1.171875 1.125l0 3.90625l-1.671875 0zm8.640625 -2.9375l1.65625 -0.265625q0.140625 1.0 0.765625 1.53125q0.640625 0.515625 1.78125 0.515625q1.15625 0 1.703125 -0.46875q0.5625 -0.46875 0.5625 -1.09375q0 -0.5625 -0.484375 -0.890625q-0.34375 -0.21875 -1.703125 -0.5625q-1.84375 -0.46875 -2.5625 -0.796875q-0.703125 -0.34375 -1.078125 -0.9375q-0.359375 -0.609375 -0.359375 -1.328125q0 -0.65625 0.296875 -1.21875q0.3125 -0.5625 0.828125 -0.9375q0.390625 -0.28125 1.0625 -0.484375q0.671875 -0.203125 1.4375 -0.203125q1.171875 0 2.046875 0.34375q0.875 0.328125 1.28125 0.90625q0.421875 0.5625 0.578125 1.515625l-1.625 0.21875q-0.109375 -0.75 -0.65625 -1.171875q-0.53125 -0.4375 -1.5 -0.4375q-1.15625 0 -1.640625 0.390625q-0.484375 0.375 -0.484375 0.875q0 0.328125 0.203125 0.59375q0.203125 0.265625 0.640625 0.4375q0.25 0.09375 1.46875 0.4375q1.765625 0.46875 2.46875 0.765625q0.703125 0.296875 1.09375 0.875q0.40625 0.578125 0.40625 1.4375q0 0.828125 -0.484375 1.578125q-0.484375 0.734375 -1.40625 1.140625q-0.921875 0.390625 -2.078125 0.390625q-1.921875 0 -2.9375 -0.796875q-1.0 -0.796875 -1.28125 -2.359375zm13.65625 1.4375l0.234375 1.484375q-0.703125 0.140625 -1.265625 0.140625q-0.90625 0 -1.40625 -0.28125q-0.5 -0.296875 -0.703125 -0.75q-0.203125 -0.46875 -0.203125 -1.984375l0 -5.65625l-1.234375 0l0 -1.3125l1.234375 0l0 -2.4375l1.65625 -1.0l0 3.4375l1.6875 0l0 1.3125l-1.6875 0l0 5.75q0 0.71875 0.078125 0.921875q0.09375 0.203125 0.296875 0.328125q0.203125 0.125 0.578125 0.125q0.265625 0 0.734375 -0.078125zm0.9020386 -3.421875q0 -2.734375 1.53125 -4.0625q1.265625 -1.09375 3.09375 -1.09375q2.03125 0 3.3125 1.34375q1.296875 1.328125 1.296875 3.671875q0 1.90625 -0.578125 3.0q-0.5625 1.078125 -1.65625 1.6875q-1.078125 0.59375 -2.375 0.59375q-2.0625 0 -3.34375 -1.328125q-1.28125 -1.328125 -1.28125 -3.8125zm1.71875 0q0 1.890625 0.828125 2.828125q0.828125 0.9375 2.078125 0.9375q1.25 0 2.0625 -0.9375q0.828125 -0.953125 0.828125 -2.890625q0 -1.828125 -0.828125 -2.765625q-0.828125 -0.9375 -2.0625 -0.9375q-1.25 0 -2.078125 0.9375q-0.828125 0.9375 -0.828125 2.828125zm9.250671 4.921875l0 -13.59375l1.671875 0l0 13.59375l-1.671875 0zm4.1917114 -11.6875l0 -1.90625l1.671875 0l0 1.90625l-1.671875 0zm0 11.6875l0 -9.859375l1.671875 0l0 9.859375l-1.671875 0zm4.1292114 0l0 -9.859375l1.5 0l0 1.40625q1.09375 -1.625 3.140625 -1.625q0.890625 0 1.640625 0.328125q0.75 0.3125 1.109375 0.84375q0.375 0.515625 0.53125 1.21875q0.09375 0.46875 0.09375 1.625l0 6.0625l-1.671875 0l0 -6.0q0 -1.015625 -0.203125 -1.515625q-0.1875 -0.515625 -0.6875 -0.8125q-0.5 -0.296875 -1.171875 -0.296875q-1.0625 0 -1.84375 0.671875q-0.765625 0.671875 -0.765625 2.578125l0 5.375l-1.671875 0zm10.391357 -11.6875l0 -1.90625l1.671875 0l0 1.90625l-1.671875 0zm0 11.6875l0 -9.859375l1.671875 0l0 9.859375l-1.671875 0zm4.5979004 0l0 -1.90625l1.90625 0l0 1.90625l-1.90625 0z" fill-rule="nonzero"></path><path fill="#000000" fill-opacity="0.0" d="m552.0 280.0l96.0 0" fill-rule="nonzero"></path><path stroke="#000000" stroke-width="2.0" stroke-linejoin="round" stroke-linecap="butt" d="m552.0 280.0l84.0 0" fill-rule="evenodd"></path><path fill="#000000" stroke="#000000" stroke-width="2.0" stroke-linecap="butt" d="m636.0 283.30347l9.076172 -3.3034668l-9.076172 -3.3034668z" fill-rule="evenodd"></path><path fill="#000000" fill-opacity="0.0" d="m528.0 312.0l144.0 0l0 48.0l-144.0 0z" fill-rule="nonzero"></path><path fill="#000000" d="m555.7876 288.9375l1.234375 -1.390625l0.71875 0.625l-1.28125 1.453125q0.625 0.9375 0.84375 1.640625q0.296875 0.921875 0.296875 2.0625q0 1.640625 -0.671875 2.9375q-0.671875 1.28125 -1.875 1.953125q-1.203125 0.65625 -2.5625 0.65625q-1.0 0 -1.828125 -0.296875q-0.625 -0.21875 -1.46875 -0.828125l-1.234375 1.375l-0.71875 -0.625l1.28125 -1.4375q-0.71875 -1.09375 -0.953125 -1.859375q-0.234375 -0.78125 -0.234375 -1.859375q0 -1.65625 0.65625 -2.953125q0.65625 -1.296875 1.84375 -1.953125q1.1875 -0.671875 2.65625 -0.671875q0.96875 0 1.703125 0.265625q0.75 0.25 1.59375 0.90625zm-0.875 0.984375q-0.6875 -0.546875 -1.203125 -0.734375q-0.515625 -0.203125 -1.21875 -0.203125q-1.609375 0 -2.65625 1.09375q-1.046875 1.078125 -1.046875 3.234375q0 0.859375 0.171875 1.515625q0.109375 0.484375 0.484375 1.203125l5.46875 -6.109375zm0.59375 0.75l-5.4375 6.09375q0.5625 0.46875 1.03125 0.640625q0.625 0.25 1.359375 0.25q1.59375 0 2.625 -1.125q1.046875 -1.125 1.046875 -3.171875q0 -1.515625 -0.625 -2.6875zm3.5250854 8.015625l0 -10.734375l1.3125 0l0 6.125l3.125 -3.171875l1.703125 0l-2.96875 2.890625l3.265625 4.890625l-1.625 0l-2.5625 -3.984375l-0.9375 0.90625l0 3.078125l-1.3125 0zm12.640625 -2.5l1.359375 0.15625q-0.3125 1.203125 -1.1875 1.859375q-0.875 0.65625 -2.234375 0.65625q-1.703125 0 -2.703125 -1.046875q-1.0 -1.046875 -1.0 -2.953125q0 -1.953125 1.015625 -3.03125q1.015625 -1.09375 2.625 -1.09375q1.5625 0 2.546875 1.0625q0.984375 1.0625 0.984375 2.984375q0 0.125 0 0.359375l-5.8125 0q0.078125 1.28125 0.71875 1.96875q0.65625 0.671875 1.640625 0.671875q0.71875 0 1.234375 -0.375q0.515625 -0.390625 0.8125 -1.21875zm-4.328125 -2.140625l4.34375 0q-0.09375 -0.984375 -0.5 -1.46875q-0.625 -0.765625 -1.625 -0.765625q-0.921875 0 -1.546875 0.609375q-0.609375 0.609375 -0.671875 1.625zm7.151123 4.640625l0 -7.78125l1.1875 0l0 1.109375q0.859375 -1.28125 2.484375 -1.28125q0.703125 0 1.28125 0.25q0.59375 0.25 0.890625 0.671875q0.296875 0.40625 0.40625 0.96875q0.078125 0.359375 0.078125 1.28125l0 4.78125l-1.328125 0l0 -4.734375q0 -0.796875 -0.15625 -1.1875q-0.140625 -0.40625 -0.53125 -0.640625q-0.390625 -0.25 -0.921875 -0.25q-0.84375 0 -1.453125 0.53125q-0.609375 0.53125 -0.609375 2.03125l0 4.25l-1.328125 0zm13.197998 0l0 -0.984375q-0.734375 1.15625 -2.171875 1.15625q-0.921875 0 -1.703125 -0.5q-0.78125 -0.515625 -1.21875 -1.4375q-0.421875 -0.921875 -0.421875 -2.109375q0 -1.171875 0.390625 -2.109375q0.390625 -0.953125 1.15625 -1.453125q0.78125 -0.515625 1.734375 -0.515625q0.703125 0 1.25 0.296875q0.5625 0.296875 0.90625 0.765625l0 -3.84375l1.3125 0l0 10.734375l-1.234375 0zm-4.15625 -3.875q0 1.484375 0.625 2.234375q0.625 0.734375 1.484375 0.734375q0.859375 0 1.46875 -0.703125q0.609375 -0.71875 0.609375 -2.15625q0 -1.609375 -0.625 -2.34375q-0.609375 -0.75 -1.515625 -0.75q-0.875 0 -1.46875 0.71875q-0.578125 0.71875 -0.578125 2.265625zm12.588623 1.375l1.359375 0.15625q-0.3125 1.203125 -1.1875 1.859375q-0.875 0.65625 -2.234375 0.65625q-1.703125 0 -2.703125 -1.046875q-1.0 -1.046875 -1.0 -2.953125q0 -1.953125 1.015625 -3.03125q1.015625 -1.09375 2.625 -1.09375q1.5625 0 2.546875 1.0625q0.984375 1.0625 0.984375 2.984375q0 0.125 0 0.359375l-5.8125 0q0.078125 1.28125 0.71875 1.96875q0.65625 0.671875 1.640625 0.671875q0.71875 0 1.234375 -0.375q0.515625 -0.390625 0.8125 -1.21875zm-4.328125 -2.140625l4.34375 0q-0.09375 -0.984375 -0.5 -1.46875q-0.625 -0.765625 -1.625 -0.765625q-0.921875 0 -1.546875 0.609375q-0.609375 0.609375 -0.671875 1.625zm16.301208 3.6875q-0.734375 0.609375 -1.40625 0.875q-0.671875 0.25 -1.453125 0.25q-1.28125 0 -1.96875 -0.625q-0.6875 -0.625 -0.6875 -1.59375q0 -0.578125 0.25 -1.046875q0.265625 -0.46875 0.6875 -0.75q0.421875 -0.296875 0.953125 -0.4375q0.375 -0.109375 1.171875 -0.203125q1.59375 -0.1875 2.34375 -0.453125q0.015625 -0.265625 0.015625 -0.34375q0 -0.8125 -0.375 -1.140625q-0.515625 -0.4375 -1.5 -0.4375q-0.9375 0 -1.390625 0.328125q-0.4375 0.3125 -0.640625 1.140625l-1.296875 -0.171875q0.171875 -0.828125 0.578125 -1.328125q0.40625 -0.515625 1.171875 -0.78125q0.765625 -0.28125 1.765625 -0.28125q1.0 0 1.609375 0.234375q0.625 0.234375 0.921875 0.59375q0.296875 0.34375 0.40625 0.890625q0.0625 0.34375 0.0625 1.21875l0 1.75q0 1.84375 0.078125 2.328125q0.09375 0.484375 0.34375 0.9375l-1.375 0q-0.203125 -0.40625 -0.265625 -0.953125zm-0.109375 -2.953125q-0.71875 0.296875 -2.15625 0.5q-0.8125 0.125 -1.15625 0.265625q-0.328125 0.140625 -0.515625 0.421875q-0.171875 0.28125 -0.171875 0.625q0 0.53125 0.390625 0.890625q0.40625 0.34375 1.171875 0.34375q0.765625 0 1.359375 -0.328125q0.59375 -0.34375 0.875 -0.921875q0.203125 -0.4375 0.203125 -1.3125l0 -0.484375zm5.354187 3.90625l-2.96875 -7.78125l1.390625 0l1.671875 4.65625q0.265625 0.765625 0.5 1.578125q0.171875 -0.625 0.484375 -1.484375l1.734375 -4.75l1.359375 0l-2.953125 7.78125l-1.21875 0zm4.640625 -2.328125l1.296875 -0.203125q0.109375 0.78125 0.609375 1.203125q0.5 0.421875 1.40625 0.421875q0.90625 0 1.34375 -0.359375q0.4375 -0.375 0.4375 -0.875q0 -0.453125 -0.390625 -0.703125q-0.265625 -0.1875 -1.34375 -0.453125q-1.453125 -0.359375 -2.015625 -0.625q-0.546875 -0.28125 -0.84375 -0.75q-0.28125 -0.46875 -0.28125 -1.046875q0 -0.515625 0.234375 -0.953125q0.234375 -0.453125 0.640625 -0.734375q0.3125 -0.234375 0.84375 -0.390625q0.53125 -0.15625 1.140625 -0.15625q0.90625 0 1.59375 0.265625q0.703125 0.265625 1.03125 0.71875q0.328125 0.4375 0.453125 1.203125l-1.28125 0.171875q-0.09375 -0.609375 -0.515625 -0.9375q-0.421875 -0.34375 -1.1875 -0.34375q-0.90625 0 -1.296875 0.3125q-0.390625 0.296875 -0.390625 0.703125q0 0.25 0.15625 0.453125q0.171875 0.21875 0.515625 0.359375q0.1875 0.0625 1.15625 0.328125q1.40625 0.375 1.953125 0.609375q0.5625 0.234375 0.875 0.703125q0.3125 0.453125 0.3125 1.125q0 0.65625 -0.390625 1.234375q-0.375 0.578125 -1.109375 0.90625q-0.71875 0.3125 -1.640625 0.3125q-1.515625 0 -2.3125 -0.625q-0.78125 -0.625 -1.0 -1.875zm10.734375 1.15625l0.1875 1.15625q-0.5625 0.125 -1.0 0.125q-0.71875 0 -1.125 -0.234375q-0.390625 -0.234375 -0.546875 -0.59375q-0.15625 -0.375 -0.15625 -1.5625l0 -4.46875l-0.96875 0l0 -1.03125l0.96875 0l0 -1.921875l1.3125 -0.796875l0 2.71875l1.328125 0l0 1.03125l-1.328125 0l0 4.546875q0 0.5625 0.0625 0.734375q0.078125 0.15625 0.234375 0.25q0.15625 0.09375 0.4375 0.09375q0.234375 0 0.59375 -0.046875zm6.2595215 0.21875q-0.734375 0.609375 -1.40625 0.875q-0.671875 0.25 -1.453125 0.25q-1.28125 0 -1.96875 -0.625q-0.6875 -0.625 -0.6875 -1.59375q0 -0.578125 0.25 -1.046875q0.265625 -0.46875 0.6875 -0.75q0.421875 -0.296875 0.953125 -0.4375q0.375 -0.109375 1.171875 -0.203125q1.59375 -0.1875 2.34375 -0.453125q0.015625 -0.265625 0.015625 -0.34375q0 -0.8125 -0.375 -1.140625q-0.515625 -0.4375 -1.5 -0.4375q-0.9375 0 -1.390625 0.328125q-0.4375 0.3125 -0.640625 1.140625l-1.296875 -0.171875q0.171875 -0.828125 0.578125 -1.328125q0.40625 -0.515625 1.171875 -0.78125q0.765625 -0.28125 1.765625 -0.28125q1.0 0 1.609375 0.234375q0.625 0.234375 0.921875 0.59375q0.296875 0.34375 0.40625 0.890625q0.0625 0.34375 0.0625 1.21875l0 1.75q0 1.84375 0.078125 2.328125q0.09375 0.484375 0.34375 0.9375l-1.375 0q-0.203125 -0.40625 -0.265625 -0.953125zm-0.109375 -2.953125q-0.71875 0.296875 -2.15625 0.5q-0.8125 0.125 -1.15625 0.265625q-0.328125 0.140625 -0.515625 0.421875q-0.171875 0.28125 -0.171875 0.625q0 0.53125 0.390625 0.890625q0.40625 0.34375 1.171875 0.34375q0.765625 0 1.359375 -0.328125q0.59375 -0.34375 0.875 -0.921875q0.203125 -0.4375 0.203125 -1.3125l0 -0.484375zm3.182312 3.90625l0 -7.78125l1.1875 0l0 1.109375q0.859375 -1.28125 2.484375 -1.28125q0.703125 0 1.28125 0.25q0.59375 0.25 0.890625 0.671875q0.296875 0.40625 0.40625 0.96875q0.078125 0.359375 0.078125 1.28125l0 4.78125l-1.328125 0l0 -4.734375q0 -0.796875 -0.15625 -1.1875q-0.140625 -0.40625 -0.53125 -0.640625q-0.390625 -0.25 -0.921875 -0.25q-0.84375 0 -1.453125 0.53125q-0.609375 0.53125 -0.609375 2.03125l0 4.25l-1.328125 0zm13.197998 0l0 -0.984375q-0.734375 1.15625 -2.171875 1.15625q-0.921875 0 -1.703125 -0.5q-0.78125 -0.515625 -1.21875 -1.4375q-0.421875 -0.921875 -0.421875 -2.109375q0 -1.171875 0.390625 -2.109375q0.390625 -0.953125 1.15625 -1.453125q0.78125 -0.515625 1.734375 -0.515625q0.703125 0 1.25 0.296875q0.5625 0.296875 0.90625 0.765625l0 -3.84375l1.3125 0l0 10.734375l-1.234375 0zm-4.15625 -3.875q0 1.484375 0.625 2.234375q0.625 0.734375 1.484375 0.734375q0.859375 0 1.46875 -0.703125q0.609375 -0.71875 0.609375 -2.15625q0 -1.609375 -0.625 -2.34375q-0.609375 -0.75 -1.515625 -0.75q-0.875 0 -1.46875 0.71875q-0.578125 0.71875 -0.578125 2.265625z" fill-rule="nonzero"></path><path fill="#000000" d="m559.4776 313.04688l1.359375 0.15625q-0.3125 1.203125 -1.1875 1.859375q-0.875 0.65625 -2.234375 0.65625q-1.703125 0 -2.703125 -1.046875q-1.0 -1.046875 -1.0 -2.953125q0 -1.953125 1.015625 -3.03125q1.015625 -1.09375 2.625 -1.09375q1.5625 0 2.546875 1.0625q0.984375 1.0625 0.984375 2.984375q0 0.125 0 0.359375l-5.8125 0q0.078125 1.28125 0.71875 1.96875q0.65625 0.671875 1.640625 0.671875q0.71875 0 1.234375 -0.375q0.515625 -0.390625 0.8125 -1.21875zm-4.328125 -2.140625l4.34375 0q-0.09375 -0.984375 -0.5 -1.46875q-0.625 -0.765625 -1.625 -0.765625q-0.921875 0 -1.546875 0.609375q-0.609375 0.609375 -0.671875 1.625zm10.041748 3.46875l0.1875 1.15625q-0.5625 0.125 -1.0 0.125q-0.71875 0 -1.125 -0.234375q-0.390625 -0.234375 -0.546875 -0.59375q-0.15625 -0.375 -0.15625 -1.5625l0 -4.46875l-0.96875 0l0 -1.03125l0.96875 0l0 -1.921875l1.3125 -0.796875l0 2.71875l1.328125 0l0 1.03125l-1.328125 0l0 4.546875q0 0.5625 0.0625 0.734375q0.078125 0.15625 0.234375 0.25q0.15625 0.09375 0.4375 0.09375q0.234375 0 0.59375 -0.046875zm4.0719604 0l0.1875 1.15625q-0.5625 0.125 -1.0 0.125q-0.71875 0 -1.125 -0.234375q-0.390625 -0.234375 -0.546875 -0.59375q-0.15625 -0.375 -0.15625 -1.5625l0 -4.46875l-0.96875 0l0 -1.03125l0.96875 0l0 -1.921875l1.3125 -0.796875l0 2.71875l1.328125 0l0 1.03125l-1.328125 0l0 4.546875q0 0.5625 0.0625 0.734375q0.078125 0.15625 0.234375 0.25q0.15625 0.09375 0.4375 0.09375q0.234375 0 0.59375 -0.046875zm6.5095215 -1.328125l1.359375 0.15625q-0.3125 1.203125 -1.1875 1.859375q-0.875 0.65625 -2.234375 0.65625q-1.703125 0 -2.703125 -1.046875q-1.0 -1.046875 -1.0 -2.953125q0 -1.953125 1.015625 -3.03125q1.015625 -1.09375 2.625 -1.09375q1.5625 0 2.546875 1.0625q0.984375 1.0625 0.984375 2.984375q0 0.125 0 0.359375l-5.8125 0q0.078125 1.28125 0.71875 1.96875q0.65625 0.671875 1.640625 0.671875q0.71875 0 1.234375 -0.375q0.515625 -0.390625 0.8125 -1.21875zm-4.328125 -2.140625l4.34375 0q-0.09375 -0.984375 -0.5 -1.46875q-0.625 -0.765625 -1.625 -0.765625q-0.921875 0 -1.546875 0.609375q-0.609375 0.609375 -0.671875 1.625zm7.135437 4.640625l0 -7.78125l1.1875 0l0 1.1875q0.453125 -0.828125 0.84375 -1.09375q0.390625 -0.265625 0.84375 -0.265625q0.671875 0 1.359375 0.421875l-0.453125 1.21875q-0.484375 -0.28125 -0.96875 -0.28125q-0.4375 0 -0.78125 0.265625q-0.34375 0.25 -0.484375 0.71875q-0.21875 0.703125 -0.21875 1.53125l0 4.078125l-1.328125 0zm4.8963013 0l0 -10.734375l1.328125 0l0 3.84375q0.921875 -1.0625 2.328125 -1.0625q0.859375 0 1.5 0.34375q0.640625 0.34375 0.90625 0.9375q0.28125 0.59375 0.28125 1.75l0 4.921875l-1.328125 0l0 -4.921875q0 -1.0 -0.421875 -1.4375q-0.421875 -0.453125 -1.21875 -0.453125q-0.578125 0 -1.09375 0.296875q-0.515625 0.296875 -0.734375 0.828125q-0.21875 0.515625 -0.21875 1.4375l0 4.25l-1.328125 0zm10.322998 0l-2.96875 -7.78125l1.390625 0l1.671875 4.65625q0.265625 0.765625 0.5 1.578125q0.171875 -0.625 0.484375 -1.484375l1.734375 -4.75l1.359375 0l-2.953125 7.78125l-1.21875 0zm10.484375 -2.5l1.359375 0.15625q-0.3125 1.203125 -1.1875 1.859375q-0.875 0.65625 -2.234375 0.65625q-1.703125 0 -2.703125 -1.046875q-1.0 -1.046875 -1.0 -2.953125q0 -1.953125 1.015625 -3.03125q1.015625 -1.09375 2.625 -1.09375q1.5625 0 2.546875 1.0625q0.984375 1.0625 0.984375 2.984375q0 0.125 0 0.359375l-5.8125 0q0.078125 1.28125 0.71875 1.96875q0.65625 0.671875 1.640625 0.671875q0.71875 0 1.234375 -0.375q0.515625 -0.390625 0.8125 -1.21875zm-4.328125 -2.140625l4.34375 0q-0.09375 -0.984375 -0.5 -1.46875q-0.625 -0.765625 -1.625 -0.765625q-0.921875 0 -1.546875 0.609375q-0.609375 0.609375 -0.671875 1.625zm7.135437 4.640625l0 -7.78125l1.1875 0l0 1.1875q0.453125 -0.828125 0.84375 -1.09375q0.390625 -0.265625 0.84375 -0.265625q0.671875 0 1.359375 0.421875l-0.453125 1.21875q-0.484375 -0.28125 -0.96875 -0.28125q-0.4375 0 -0.78125 0.265625q-0.34375 0.25 -0.484375 0.71875q-0.21875 0.703125 -0.21875 1.53125l0 4.078125l-1.328125 0zm7.7869263 -1.171875l0.1875 1.15625q-0.5625 0.125 -1.0 0.125q-0.71875 0 -1.125 -0.234375q-0.390625 -0.234375 -0.546875 -0.59375q-0.15625 -0.375 -0.15625 -1.5625l0 -4.46875l-0.96875 0l0 -1.03125l0.96875 0l0 -1.921875l1.3125 -0.796875l0 2.71875l1.328125 0l0 1.03125l-1.328125 0l0 4.546875q0 0.5625 0.0625 0.734375q0.078125 0.15625 0.234375 0.25q0.15625 0.09375 0.4375 0.09375q0.234375 0 0.59375 -0.046875zm4.737671 -1.15625l1.296875 -0.203125q0.109375 0.78125 0.609375 1.203125q0.5 0.421875 1.40625 0.421875q0.90625 0 1.34375 -0.359375q0.4375 -0.375 0.4375 -0.875q0 -0.453125 -0.390625 -0.703125q-0.265625 -0.1875 -1.34375 -0.453125q-1.453125 -0.359375 -2.015625 -0.625q-0.546875 -0.28125 -0.84375 -0.75q-0.28125 -0.46875 -0.28125 -1.046875q0 -0.515625 0.234375 -0.953125q0.234375 -0.453125 0.640625 -0.734375q0.3125 -0.234375 0.84375 -0.390625q0.53125 -0.15625 1.140625 -0.15625q0.90625 0 1.59375 0.265625q0.703125 0.265625 1.03125 0.71875q0.328125 0.4375 0.453125 1.203125l-1.28125 0.171875q-0.09375 -0.609375 -0.515625 -0.9375q-0.421875 -0.34375 -1.1875 -0.34375q-0.90625 0 -1.296875 0.3125q-0.390625 0.296875 -0.390625 0.703125q0 0.25 0.15625 0.453125q0.171875 0.21875 0.515625 0.359375q0.1875 0.0625 1.15625 0.328125q1.40625 0.375 1.953125 0.609375q0.5625 0.234375 0.875 0.703125q0.3125 0.453125 0.3125 1.125q0 0.65625 -0.390625 1.234375q-0.375 0.578125 -1.109375 0.90625q-0.71875 0.3125 -1.640625 0.3125q-1.515625 0 -2.3125 -0.625q-0.78125 -0.625 -1.0 -1.875zm7.359375 -1.5625q0 -2.15625 1.203125 -3.203125q1.0 -0.859375 2.4375 -0.859375q1.609375 0 2.625 1.046875q1.015625 1.046875 1.015625 2.90625q0 1.5 -0.453125 2.359375q-0.4375 0.859375 -1.3125 1.34375q-0.859375 0.46875 -1.875 0.46875q-1.625 0 -2.640625 -1.046875q-1.0 -1.046875 -1.0 -3.015625zm1.359375 0q0 1.5 0.640625 2.25q0.65625 0.734375 1.640625 0.734375q0.984375 0 1.640625 -0.75q0.65625 -0.75 0.65625 -2.28125q0 -1.4375 -0.65625 -2.171875q-0.65625 -0.75 -1.640625 -0.75q-0.984375 0 -1.640625 0.734375q-0.640625 0.734375 -0.640625 2.234375zm7.276123 3.890625l0 -7.78125l1.1875 0l0 1.09375q0.359375 -0.578125 0.96875 -0.921875q0.609375 -0.34375 1.390625 -0.34375q0.859375 0 1.40625 0.359375q0.5625 0.359375 0.78125 1.0q0.921875 -1.359375 2.40625 -1.359375q1.15625 0 1.78125 0.640625q0.625 0.640625 0.625 1.96875l0 5.34375l-1.3125 0l0 -4.90625q0 -0.78125 -0.125 -1.125q-0.125 -0.359375 -0.46875 -0.5625q-0.34375 -0.21875 -0.796875 -0.21875q-0.8125 0 -1.359375 0.546875q-0.546875 0.546875 -0.546875 1.75l0 4.515625l-1.3125 0l0 -5.046875q0 -0.890625 -0.328125 -1.328125q-0.3125 -0.4375 -1.046875 -0.4375q-0.5625 0 -1.03125 0.296875q-0.46875 0.296875 -0.6875 0.859375q-0.203125 0.5625 -0.203125 1.625l0 4.03125l-1.328125 0z" fill-rule="nonzero"></path><path fill="#000000" d="m552.9279 332.40625l-1.21875 0l0 -10.734375l1.3125 0l0 3.828125q0.84375 -1.046875 2.140625 -1.046875q0.71875 0 1.359375 0.296875q0.640625 0.28125 1.046875 0.8125q0.421875 0.515625 0.65625 1.265625q0.234375 0.734375 0.234375 1.578125q0 2.0 -1.0 3.09375q-0.984375 1.078125 -2.375 1.078125q-1.375 0 -2.15625 -1.140625l0 0.96875zm-0.015625 -3.953125q0 1.40625 0.390625 2.03125q0.609375 1.015625 1.671875 1.015625q0.875 0 1.5 -0.75q0.625 -0.75 0.625 -2.234375q0 -1.53125 -0.609375 -2.25q-0.59375 -0.734375 -1.453125 -0.734375q-0.859375 0 -1.5 0.75q-0.625 0.75 -0.625 2.171875zm6.963623 -5.265625l0 -1.515625l1.3125 0l0 1.515625l-1.3125 0zm0 9.21875l0 -7.78125l1.3125 0l0 7.78125l-1.3125 0zm3.2092896 0l0 -10.734375l1.328125 0l0 10.734375l-1.328125 0zm8.3342285 0l0 -0.984375q-0.734375 1.15625 -2.171875 1.15625q-0.921875 0 -1.703125 -0.5q-0.78125 -0.515625 -1.21875 -1.4375q-0.421875 -0.921875 -0.421875 -2.109375q0 -1.171875 0.390625 -2.109375q0.390625 -0.953125 1.15625 -1.453125q0.78125 -0.515625 1.734375 -0.515625q0.703125 0 1.25 0.296875q0.5625 0.296875 0.90625 0.765625l0 -3.84375l1.3125 0l0 10.734375l-1.234375 0zm-4.15625 -3.875q0 1.484375 0.625 2.234375q0.625 0.734375 1.484375 0.734375q0.859375 0 1.46875 -0.703125q0.609375 -0.71875 0.609375 -2.15625q0 -1.609375 -0.625 -2.34375q-0.609375 -0.75 -1.515625 -0.75q-0.875 0 -1.46875 0.71875q-0.578125 0.71875 -0.578125 2.265625zm12.588623 1.375l1.359375 0.15625q-0.3125 1.203125 -1.1875 1.859375q-0.875 0.65625 -2.234375 0.65625q-1.703125 0 -2.703125 -1.046875q-1.0 -1.046875 -1.0 -2.953125q0 -1.953125 1.015625 -3.03125q1.015625 -1.09375 2.625 -1.09375q1.5625 0 2.546875 1.0625q0.984375 1.0625 0.984375 2.984375q0 0.125 0 0.359375l-5.8125 0q0.078125 1.28125 0.71875 1.96875q0.65625 0.671875 1.640625 0.671875q0.71875 0 1.234375 -0.375q0.515625 -0.390625 0.8125 -1.21875zm-4.328125 -2.140625l4.34375 0q-0.09375 -0.984375 -0.5 -1.46875q-0.625 -0.765625 -1.625 -0.765625q-0.921875 0 -1.546875 0.609375q-0.609375 0.609375 -0.671875 1.625zm10.041748 3.46875l0.1875 1.15625q-0.5625 0.125 -1.0 0.125q-0.71875 0 -1.125 -0.234375q-0.390625 -0.234375 -0.546875 -0.59375q-0.15625 -0.375 -0.15625 -1.5625l0 -4.46875l-0.96875 0l0 -1.03125l0.96875 0l0 -1.921875l1.3125 -0.796875l0 2.71875l1.328125 0l0 1.03125l-1.328125 0l0 4.546875q0 0.5625 0.0625 0.734375q0.078125 0.15625 0.234375 0.25q0.15625 0.09375 0.4375 0.09375q0.234375 0 0.59375 -0.046875zm10.581421 -1.328125l1.359375 0.15625q-0.3125 1.203125 -1.1875 1.859375q-0.875 0.65625 -2.234375 0.65625q-1.703125 0 -2.703125 -1.046875q-1.0 -1.046875 -1.0 -2.953125q0 -1.953125 1.015625 -3.03125q1.015625 -1.09375 2.625 -1.09375q1.5625 0 2.546875 1.0625q0.984375 1.0625 0.984375 2.984375q0 0.125 0 0.359375l-5.8125 0q0.078125 1.28125 0.71875 1.96875q0.65625 0.671875 1.640625 0.671875q0.71875 0 1.234375 -0.375q0.515625 -0.390625 0.8125 -1.21875zm-4.328125 -2.140625l4.34375 0q-0.09375 -0.984375 -0.5 -1.46875q-0.625 -0.765625 -1.625 -0.765625q-0.921875 0 -1.546875 0.609375q-0.609375 0.609375 -0.671875 1.625zm7.135498 4.640625l0 -7.78125l1.1875 0l0 1.1875q0.453125 -0.828125 0.84375 -1.09375q0.390625 -0.265625 0.84375 -0.265625q0.671875 0 1.359375 0.421875l-0.453125 1.21875q-0.484375 -0.28125 -0.96875 -0.28125q-0.4375 0 -0.78125 0.265625q-0.34375 0.25 -0.484375 0.71875q-0.21875 0.703125 -0.21875 1.53125l0 4.078125l-1.328125 0zm8.452637 -2.328125l1.296875 -0.203125q0.109375 0.78125 0.609375 1.203125q0.5 0.421875 1.40625 0.421875q0.90625 0 1.34375 -0.359375q0.4375 -0.375 0.4375 -0.875q0 -0.453125 -0.390625 -0.703125q-0.265625 -0.1875 -1.34375 -0.453125q-1.453125 -0.359375 -2.015625 -0.625q-0.546875 -0.28125 -0.84375 -0.75q-0.28125 -0.46875 -0.28125 -1.046875q0 -0.515625 0.234375 -0.953125q0.234375 -0.453125 0.640625 -0.734375q0.3125 -0.234375 0.84375 -0.390625q0.53125 -0.15625 1.140625 -0.15625q0.90625 0 1.59375 0.265625q0.703125 0.265625 1.03125 0.71875q0.328125 0.4375 0.453125 1.203125l-1.28125 0.171875q-0.09375 -0.609375 -0.515625 -0.9375q-0.421875 -0.34375 -1.1875 -0.34375q-0.90625 0 -1.296875 0.3125q-0.390625 0.296875 -0.390625 0.703125q0 0.25 0.15625 0.453125q0.171875 0.21875 0.515625 0.359375q0.1875 0.0625 1.15625 0.328125q1.40625 0.375 1.953125 0.609375q0.5625 0.234375 0.875 0.703125q0.3125 0.453125 0.3125 1.125q0 0.65625 -0.390625 1.234375q-0.375 0.578125 -1.109375 0.90625q-0.71875 0.3125 -1.640625 0.3125q-1.515625 0 -2.3125 -0.625q-0.78125 -0.625 -1.0 -1.875zm10.734375 1.15625l0.1875 1.15625q-0.5625 0.125 -1.0 0.125q-0.71875 0 -1.125 -0.234375q-0.390625 -0.234375 -0.546875 -0.59375q-0.15625 -0.375 -0.15625 -1.5625l0 -4.46875l-0.96875 0l0 -1.03125l0.96875 0l0 -1.921875l1.3125 -0.796875l0 2.71875l1.328125 0l0 1.03125l-1.328125 0l0 4.546875q0 0.5625 0.0625 0.734375q0.078125 0.15625 0.234375 0.25q0.15625 0.09375 0.4375 0.09375q0.234375 0 0.59375 -0.046875zm6.9313354 -6.140625l0.71875 -0.9375l0.703125 0.515625l-0.78125 1.0q0.46875 0.640625 0.625 1.140625q0.234375 0.734375 0.234375 1.71875q0 2.1875 -1.234375 3.21875q-1.015625 0.828125 -2.421875 0.828125q-1.171875 0 -2.0625 -0.578125l-0.765625 0.984375l-0.6875 -0.515625l0.796875 -1.03125q-0.4375 -0.5 -0.625 -1.0q-0.296875 -0.796875 -0.296875 -1.8125q0 -2.203125 1.078125 -3.1875q1.078125 -0.984375 2.53125 -0.984375q0.609375 0 1.109375 0.15625q0.5 0.15625 1.078125 0.484375zm-0.75 0.96875q-0.65625 -0.515625 -1.390625 -0.515625q-0.96875 0 -1.640625 0.75q-0.65625 0.734375 -0.65625 2.21875q0 1.09375 0.390625 1.84375l3.296875 -4.296875zm0.5625 0.703125l-3.296875 4.265625q0.578125 0.46875 1.296875 0.46875q1.015625 0 1.671875 -0.75q0.671875 -0.75 0.671875 -2.234375q0 -0.5625 -0.09375 -0.984375q-0.0625 -0.296875 -0.25 -0.765625zm3.3745117 5.640625l0 -7.78125l1.1875 0l0 1.1875q0.453125 -0.828125 0.84375 -1.09375q0.390625 -0.265625 0.84375 -0.265625q0.671875 0 1.359375 0.421875l-0.453125 1.21875q-0.484375 -0.28125 -0.96875 -0.28125q-0.4375 0 -0.78125 0.265625q-0.34375 0.25 -0.484375 0.71875q-0.21875 0.703125 -0.21875 1.53125l0 4.078125l-1.328125 0zm4.880615 0l0 -7.78125l1.1875 0l0 1.1875q0.453125 -0.828125 0.84375 -1.09375q0.390625 -0.265625 0.84375 -0.265625q0.671875 0 1.359375 0.421875l-0.453125 1.21875q-0.484375 -0.28125 -0.96875 -0.28125q-0.4375 0 -0.78125 0.265625q-0.34375 0.25 -0.484375 0.71875q-0.21875 0.703125 -0.21875 1.53125l0 4.078125l-1.328125 0zm10.224426 -2.5l1.359375 0.15625q-0.3125 1.203125 -1.1875 1.859375q-0.875 0.65625 -2.234375 0.65625q-1.703125 0 -2.703125 -1.046875q-1.0 -1.046875 -1.0 -2.953125q0 -1.953125 1.015625 -3.03125q1.015625 -1.09375 2.625 -1.09375q1.5625 0 2.546875 1.0625q0.984375 1.0625 0.984375 2.984375q0 0.125 0 0.359375l-5.8125 0q0.078125 1.28125 0.71875 1.96875q0.65625 0.671875 1.640625 0.671875q0.71875 0 1.234375 -0.375q0.515625 -0.390625 0.8125 -1.21875zm-4.328125 -2.140625l4.34375 0q-0.09375 -0.984375 -0.5 -1.46875q-0.625 -0.765625 -1.625 -0.765625q-0.921875 0 -1.546875 0.609375q-0.609375 0.609375 -0.671875 1.625zm7.494873 4.640625l0 -1.5l1.5 0l0 1.5q0 0.828125 -0.296875 1.328125q-0.28125 0.515625 -0.921875 0.796875l-0.359375 -0.5625q0.40625 -0.1875 0.609375 -0.546875q0.203125 -0.34375 0.21875 -1.015625l-0.75 0z" fill-rule="nonzero"></path><path fill="#000000" d="m548.0451 349.26562l0 -7.78125l1.1875 0l0 1.09375q0.359375 -0.578125 0.96875 -0.921875q0.609375 -0.34375 1.390625 -0.34375q0.859375 0 1.40625 0.359375q0.5625 0.359375 0.78125 1.0q0.921875 -1.359375 2.40625 -1.359375q1.15625 0 1.78125 0.640625q0.625 0.640625 0.625 1.96875l0 5.34375l-1.3125 0l0 -4.90625q0 -0.78125 -0.125 -1.125q-0.125 -0.359375 -0.46875 -0.5625q-0.34375 -0.21875 -0.796875 -0.21875q-0.8125 0 -1.359375 0.546875q-0.546875 0.546875 -0.546875 1.75l0 4.515625l-1.3125 0l0 -5.046875q0 -0.890625 -0.328125 -1.328125q-0.3125 -0.4375 -1.046875 -0.4375q-0.5625 0 -1.03125 0.296875q-0.46875 0.296875 -0.6875 0.859375q-0.203125 0.5625 -0.203125 1.625l0 4.03125l-1.328125 0zm17.536926 -2.5l1.359375 0.15625q-0.3125 1.203125 -1.1875 1.859375q-0.875 0.65625 -2.234375 0.65625q-1.703125 0 -2.703125 -1.046875q-1.0 -1.046875 -1.0 -2.953125q0 -1.953125 1.015625 -3.03125q1.015625 -1.09375 2.625 -1.09375q1.5625 0 2.546875 1.0625q0.984375 1.0625 0.984375 2.984375q0 0.125 0 0.359375l-5.8125 0q0.078125 1.28125 0.71875 1.96875q0.65625 0.671875 1.640625 0.671875q0.71875 0 1.234375 -0.375q0.515625 -0.390625 0.8125 -1.21875zm-4.328125 -2.140625l4.34375 0q-0.09375 -0.984375 -0.5 -1.46875q-0.625 -0.765625 -1.625 -0.765625q-0.921875 0 -1.546875 0.609375q-0.609375 0.609375 -0.671875 1.625zm7.151062 4.640625l0 -7.78125l1.1875 0l0 1.109375q0.859375 -1.28125 2.484375 -1.28125q0.703125 0 1.28125 0.25q0.59375 0.25 0.890625 0.671875q0.296875 0.40625 0.40625 0.96875q0.078125 0.359375 0.078125 1.28125l0 4.78125l-1.328125 0l0 -4.734375q0 -0.796875 -0.15625 -1.1875q-0.140625 -0.40625 -0.53125 -0.640625q-0.390625 -0.25 -0.921875 -0.25q-0.84375 0 -1.453125 0.53125q-0.609375 0.53125 -0.609375 2.03125l0 4.25l-1.328125 0zm12.2230835 0l0 -7.78125l1.1875 0l0 1.09375q0.359375 -0.578125 0.96875 -0.921875q0.609375 -0.34375 1.390625 -0.34375q0.859375 0 1.40625 0.359375q0.5625 0.359375 0.78125 1.0q0.921875 -1.359375 2.40625 -1.359375q1.15625 0 1.78125 0.640625q0.625 0.640625 0.625 1.96875l0 5.34375l-1.3125 0l0 -4.90625q0 -0.78125 -0.125 -1.125q-0.125 -0.359375 -0.46875 -0.5625q-0.34375 -0.21875 -0.796875 -0.21875q-0.8125 0 -1.359375 0.546875q-0.546875 0.546875 -0.546875 1.75l0 4.515625l-1.3125 0l0 -5.046875q0 -0.890625 -0.328125 -1.328125q-0.3125 -0.4375 -1.046875 -0.4375q-0.5625 0 -1.03125 0.296875q-0.46875 0.296875 -0.6875 0.859375q-0.203125 0.5625 -0.203125 1.625l0 4.03125l-1.328125 0zm17.286926 -0.953125q-0.734375 0.609375 -1.40625 0.875q-0.671875 0.25 -1.453125 0.25q-1.28125 0 -1.96875 -0.625q-0.6875 -0.625 -0.6875 -1.59375q0 -0.578125 0.25 -1.046875q0.265625 -0.46875 0.6875 -0.75q0.421875 -0.296875 0.953125 -0.4375q0.375 -0.109375 1.171875 -0.203125q1.59375 -0.1875 2.34375 -0.453125q0.015625 -0.265625 0.015625 -0.34375q0 -0.8125 -0.375 -1.140625q-0.515625 -0.4375 -1.5 -0.4375q-0.9375 0 -1.390625 0.328125q-0.4375 0.3125 -0.640625 1.140625l-1.296875 -0.171875q0.171875 -0.828125 0.578125 -1.328125q0.40625 -0.515625 1.171875 -0.78125q0.765625 -0.28125 1.765625 -0.28125q1.0 0 1.609375 0.234375q0.625 0.234375 0.921875 0.59375q0.296875 0.34375 0.40625 0.890625q0.0625 0.34375 0.0625 1.21875l0 1.75q0 1.84375 0.078125 2.328125q0.09375 0.484375 0.34375 0.9375l-1.375 0q-0.203125 -0.40625 -0.265625 -0.953125zm-0.109375 -2.953125q-0.71875 0.296875 -2.15625 0.5q-0.8125 0.125 -1.15625 0.265625q-0.328125 0.140625 -0.515625 0.421875q-0.171875 0.28125 -0.171875 0.625q0 0.53125 0.390625 0.890625q0.40625 0.34375 1.171875 0.34375q0.765625 0 1.359375 -0.328125q0.59375 -0.34375 0.875 -0.921875q0.203125 -0.4375 0.203125 -1.3125l0 -0.484375zm3.197998 3.90625l0 -10.734375l1.3125 0l0 6.125l3.125 -3.171875l1.703125 0l-2.96875 2.890625l3.265625 4.890625l-1.625 0l-2.5625 -3.984375l-0.9375 0.90625l0 3.078125l-1.3125 0zm6.796875 -2.328125l1.296875 -0.203125q0.109375 0.78125 0.609375 1.203125q0.5 0.421875 1.40625 0.421875q0.90625 0 1.34375 -0.359375q0.4375 -0.375 0.4375 -0.875q0 -0.453125 -0.390625 -0.703125q-0.265625 -0.1875 -1.34375 -0.453125q-1.453125 -0.359375 -2.015625 -0.625q-0.546875 -0.28125 -0.84375 -0.75q-0.28125 -0.46875 -0.28125 -1.046875q0 -0.515625 0.234375 -0.953125q0.234375 -0.453125 0.640625 -0.734375q0.3125 -0.234375 0.84375 -0.390625q0.53125 -0.15625 1.140625 -0.15625q0.90625 0 1.59375 0.265625q0.703125 0.265625 1.03125 0.71875q0.328125 0.4375 0.453125 1.203125l-1.28125 0.171875q-0.09375 -0.609375 -0.515625 -0.9375q-0.421875 -0.34375 -1.1875 -0.34375q-0.90625 0 -1.296875 0.3125q-0.390625 0.296875 -0.390625 0.703125q0 0.25 0.15625 0.453125q0.171875 0.21875 0.515625 0.359375q0.1875 0.0625 1.15625 0.328125q1.40625 0.375 1.953125 0.609375q0.5625 0.234375 0.875 0.703125q0.3125 0.453125 0.3125 1.125q0 0.65625 -0.390625 1.234375q-0.375 0.578125 -1.109375 0.90625q-0.71875 0.3125 -1.640625 0.3125q-1.515625 0 -2.3125 -0.625q-0.78125 -0.625 -1.0 -1.875zm10.993835 2.328125l4.15625 -5.59375l-3.65625 -5.140625l1.6875 0l1.953125 2.75q0.609375 0.859375 0.859375 1.3125q0.359375 -0.578125 0.84375 -1.21875l2.171875 -2.84375l1.53125 0l-3.765625 5.0625l4.0625 5.671875l-1.75 0l-2.703125 -3.828125q-0.234375 -0.328125 -0.46875 -0.71875q-0.359375 0.578125 -0.515625 0.796875l-2.703125 3.75l-1.703125 0zm20.097595 -2.5l1.359375 0.15625q-0.3125 1.203125 -1.1875 1.859375q-0.875 0.65625 -2.234375 0.65625q-1.703125 0 -2.703125 -1.046875q-1.0 -1.046875 -1.0 -2.953125q0 -1.953125 1.015625 -3.03125q1.015625 -1.09375 2.625 -1.09375q1.5625 0 2.546875 1.0625q0.984375 1.0625 0.984375 2.984375q0 0.125 0 0.359375l-5.8125 0q0.078125 1.28125 0.71875 1.96875q0.65625 0.671875 1.640625 0.671875q0.71875 0 1.234375 -0.375q0.515625 -0.390625 0.8125 -1.21875zm-4.328125 -2.140625l4.34375 0q-0.09375 -0.984375 -0.5 -1.46875q-0.625 -0.765625 -1.625 -0.765625q-0.921875 0 -1.546875 0.609375q-0.609375 0.609375 -0.671875 1.625zm7.151062 4.640625l0 -7.78125l1.1875 0l0 1.09375q0.359375 -0.578125 0.96875 -0.921875q0.609375 -0.34375 1.390625 -0.34375q0.859375 0 1.40625 0.359375q0.5625 0.359375 0.78125 1.0q0.921875 -1.359375 2.40625 -1.359375q1.15625 0 1.78125 0.640625q0.625 0.640625 0.625 1.96875l0 5.34375l-1.3125 0l0 -4.90625q0 -0.78125 -0.125 -1.125q-0.125 -0.359375 -0.46875 -0.5625q-0.34375 -0.21875 -0.796875 -0.21875q-0.8125 0 -1.359375 0.546875q-0.546875 0.546875 -0.546875 1.75l0 4.515625l-1.3125 0l0 -5.046875q0 -0.890625 -0.328125 -1.328125q-0.3125 -0.4375 -1.046875 -0.4375q-0.5625 0 -1.03125 0.296875q-0.46875 0.296875 -0.6875 0.859375q-0.203125 0.5625 -0.203125 1.625l0 4.03125l-1.328125 0z" fill-rule="nonzero"></path><path fill="#000000" d="m543.56525 366.125l0 -7.78125l1.1875 0l0 1.09375q0.359375 -0.578125 0.96875 -0.921875q0.609375 -0.34375 1.390625 -0.34375q0.859375 0 1.40625 0.359375q0.5625 0.359375 0.78125 1.0q0.921875 -1.359375 2.40625 -1.359375q1.15625 0 1.78125 0.640625q0.625 0.640625 0.625 1.96875l0 5.34375l-1.3125 0l0 -4.90625q0 -0.78125 -0.125 -1.125q-0.125 -0.359375 -0.46875 -0.5625q-0.34375 -0.21875 -0.796875 -0.21875q-0.8125 0 -1.359375 0.546875q-0.546875 0.546875 -0.546875 1.75l0 4.515625l-1.3125 0l0 -5.046875q0 -0.890625 -0.328125 -1.328125q-0.3125 -0.4375 -1.046875 -0.4375q-0.5625 0 -1.03125 0.296875q-0.46875 0.296875 -0.6875 0.859375q-0.203125 0.5625 -0.203125 1.625l0 4.03125l-1.328125 0zm17.286865 -0.953125q-0.734375 0.609375 -1.40625 0.875q-0.671875 0.25 -1.453125 0.25q-1.28125 0 -1.96875 -0.625q-0.6875 -0.625 -0.6875 -1.59375q0 -0.578125 0.25 -1.046875q0.265625 -0.46875 0.6875 -0.75q0.421875 -0.296875 0.953125 -0.4375q0.375 -0.109375 1.171875 -0.203125q1.59375 -0.1875 2.34375 -0.453125q0.015625 -0.265625 0.015625 -0.34375q0 -0.8125 -0.375 -1.140625q-0.515625 -0.4375 -1.5 -0.4375q-0.9375 0 -1.390625 0.328125q-0.4375 0.3125 -0.640625 1.140625l-1.296875 -0.171875q0.171875 -0.828125 0.578125 -1.328125q0.40625 -0.515625 1.171875 -0.78125q0.765625 -0.28125 1.765625 -0.28125q1.0 0 1.609375 0.234375q0.625 0.234375 0.921875 0.59375q0.296875 0.34375 0.40625 0.890625q0.0625 0.34375 0.0625 1.21875l0 1.75q0 1.84375 0.078125 2.328125q0.09375 0.484375 0.34375 0.9375l-1.375 0q-0.203125 -0.40625 -0.265625 -0.953125zm-0.109375 -2.953125q-0.71875 0.296875 -2.15625 0.5q-0.8125 0.125 -1.15625 0.265625q-0.328125 0.140625 -0.515625 0.421875q-0.171875 0.28125 -0.171875 0.625q0 0.53125 0.390625 0.890625q0.40625 0.34375 1.171875 0.34375q0.765625 0 1.359375 -0.328125q0.59375 -0.34375 0.875 -0.921875q0.203125 -0.4375 0.203125 -1.3125l0 -0.484375zm3.166748 3.90625l0 -7.78125l1.1875 0l0 1.1875q0.453125 -0.828125 0.84375 -1.09375q0.390625 -0.265625 0.84375 -0.265625q0.671875 0 1.359375 0.421875l-0.453125 1.21875q-0.484375 -0.28125 -0.96875 -0.28125q-0.4375 0 -0.78125 0.265625q-0.34375 0.25 -0.484375 0.71875q-0.21875 0.703125 -0.21875 1.53125l0 4.078125l-1.328125 0zm4.661865 0.640625l1.28125 0.1875q0.078125 0.59375 0.4375 0.875q0.5 0.359375 1.34375 0.359375q0.921875 0 1.421875 -0.375q0.5 -0.359375 0.671875 -1.015625q0.09375 -0.40625 0.09375 -1.6875q-0.859375 1.015625 -2.15625 1.015625q-1.609375 0 -2.484375 -1.15625q-0.875 -1.15625 -0.875 -2.78125q0 -1.109375 0.40625 -2.046875q0.40625 -0.9375 1.15625 -1.453125q0.765625 -0.515625 1.8125 -0.515625q1.375 0 2.265625 1.109375l0 -0.9375l1.21875 0l0 6.71875q0 1.828125 -0.375 2.578125q-0.375 0.765625 -1.171875 1.203125q-0.796875 0.4375 -1.96875 0.4375q-1.390625 0 -2.25 -0.625q-0.859375 -0.625 -0.828125 -1.890625zm1.09375 -4.671875q0 1.53125 0.59375 2.234375q0.609375 0.703125 1.53125 0.703125q0.90625 0 1.515625 -0.6875q0.625 -0.703125 0.625 -2.203125q0 -1.421875 -0.640625 -2.140625q-0.625 -0.734375 -1.515625 -0.734375q-0.890625 0 -1.5 0.71875q-0.609375 0.703125 -0.609375 2.109375zm7.307373 -5.1875l0 -1.515625l1.3125 0l0 1.515625l-1.3125 0zm0 9.21875l0 -7.78125l1.3125 0l0 7.78125l-1.3125 0zm3.2405396 0l0 -7.78125l1.1875 0l0 1.109375q0.859375 -1.28125 2.484375 -1.28125q0.703125 0 1.28125 0.25q0.59375 0.25 0.890625 0.671875q0.296875 0.40625 0.40625 0.96875q0.078125 0.359375 0.078125 1.28125l0 4.78125l-1.328125 0l0 -4.734375q0 -0.796875 -0.15625 -1.1875q-0.140625 -0.40625 -0.53125 -0.640625q-0.390625 -0.25 -0.921875 -0.25q-0.84375 0 -1.453125 0.53125q-0.609375 0.53125 -0.609375 2.03125l0 4.25l-1.328125 0zm12.5355835 0l0 -6.75l-1.15625 0l0 -1.03125l1.15625 0l0 -0.828125q0 -0.78125 0.140625 -1.15625q0.203125 -0.515625 0.671875 -0.828125q0.484375 -0.328125 1.34375 -0.328125q0.5625 0 1.234375 0.140625l-0.203125 1.140625q-0.40625 -0.078125 -0.765625 -0.078125q-0.609375 0 -0.859375 0.265625q-0.25 0.25 -0.25 0.953125l0 0.71875l1.515625 0l0 1.03125l-1.515625 0l0 6.75l-1.3125 0zm9.50946 -7.3125l0.71875 -0.9375l0.703125 0.515625l-0.78125 1.0q0.46875 0.640625 0.625 1.140625q0.234375 0.734375 0.234375 1.71875q0 2.1875 -1.234375 3.21875q-1.015625 0.828125 -2.421875 0.828125q-1.171875 0 -2.0625 -0.578125l-0.765625 0.984375l-0.6875 -0.515625l0.796875 -1.03125q-0.4375 -0.5 -0.625 -1.0q-0.296875 -0.796875 -0.296875 -1.8125q0 -2.203125 1.078125 -3.1875q1.078125 -0.984375 2.53125 -0.984375q0.609375 0 1.109375 0.15625q0.5 0.15625 1.078125 0.484375zm-0.75 0.96875q-0.65625 -0.515625 -1.390625 -0.515625q-0.96875 0 -1.640625 0.75q-0.65625 0.734375 -0.65625 2.21875q0 1.09375 0.390625 1.84375l3.296875 -4.296875zm0.5625 0.703125l-3.296875 4.265625q0.578125 0.46875 1.296875 0.46875q1.015625 0 1.671875 -0.75q0.671875 -0.75 0.671875 -2.234375q0 -0.5625 -0.09375 -0.984375q-0.0625 -0.296875 -0.25 -0.765625zm3.3745117 5.640625l0 -7.78125l1.1875 0l0 1.1875q0.453125 -0.828125 0.84375 -1.09375q0.390625 -0.265625 0.84375 -0.265625q0.671875 0 1.359375 0.421875l-0.453125 1.21875q-0.484375 -0.28125 -0.96875 -0.28125q-0.4375 0 -0.78125 0.265625q-0.34375 0.25 -0.484375 0.71875q-0.21875 0.703125 -0.21875 1.53125l0 4.078125l-1.328125 0zm14.015137 0l0 -0.984375q-0.734375 1.15625 -2.171875 1.15625q-0.921875 0 -1.703125 -0.5q-0.78125 -0.515625 -1.21875 -1.4375q-0.421875 -0.921875 -0.421875 -2.109375q0 -1.171875 0.390625 -2.109375q0.390625 -0.953125 1.15625 -1.453125q0.78125 -0.515625 1.734375 -0.515625q0.703125 0 1.25 0.296875q0.5625 0.296875 0.90625 0.765625l0 -3.84375l1.3125 0l0 10.734375l-1.234375 0zm-4.15625 -3.875q0 1.484375 0.625 2.234375q0.625 0.734375 1.484375 0.734375q0.859375 0 1.46875 -0.703125q0.609375 -0.71875 0.609375 -2.15625q0 -1.609375 -0.625 -2.34375q-0.609375 -0.75 -1.515625 -0.75q-0.875 0 -1.46875 0.71875q-0.578125 0.71875 -0.578125 2.265625zm12.588562 1.375l1.359375 0.15625q-0.3125 1.203125 -1.1875 1.859375q-0.875 0.65625 -2.234375 0.65625q-1.703125 0 -2.703125 -1.046875q-1.0 -1.046875 -1.0 -2.953125q0 -1.953125 1.015625 -3.03125q1.015625 -1.09375 2.625 -1.09375q1.5625 0 2.546875 1.0625q0.984375 1.0625 0.984375 2.984375q0 0.125 0 0.359375l-5.8125 0q0.078125 1.28125 0.71875 1.96875q0.65625 0.671875 1.640625 0.671875q0.71875 0 1.234375 -0.375q0.515625 -0.390625 0.8125 -1.21875zm-4.328125 -2.140625l4.34375 0q-0.09375 -0.984375 -0.5 -1.46875q-0.625 -0.765625 -1.625 -0.765625q-0.921875 0 -1.546875 0.609375q-0.609375 0.609375 -0.671875 1.625zm10.041748 3.46875l0.1875 1.15625q-0.5625 0.125 -1.0 0.125q-0.71875 0 -1.125 -0.234375q-0.390625 -0.234375 -0.546875 -0.59375q-0.15625 -0.375 -0.15625 -1.5625l0 -4.46875l-0.96875 0l0 -1.03125l0.96875 0l0 -1.921875l1.3125 -0.796875l0 2.71875l1.328125 0l0 1.03125l-1.328125 0l0 4.546875q0 0.5625 0.0625 0.734375q0.078125 0.15625 0.234375 0.25q0.15625 0.09375 0.4375 0.09375q0.234375 0 0.59375 -0.046875zm6.472107 1.171875l-1.21875 0l0 -10.734375l1.3125 0l0 3.828125q0.84375 -1.046875 2.140625 -1.046875q0.71875 0 1.359375 0.296875q0.640625 0.28125 1.046875 0.8125q0.421875 0.515625 0.65625 1.265625q0.234375 0.734375 0.234375 1.578125q0 2.0 -1.0 3.09375q-0.984375 1.078125 -2.375 1.078125q-1.375 0 -2.15625 -1.140625l0 0.96875zm-0.015625 -3.953125q0 1.40625 0.390625 2.03125q0.609375 1.015625 1.671875 1.015625q0.875 0 1.5 -0.75q0.625 -0.75 0.625 -2.234375q0 -1.53125 -0.609375 -2.25q-0.59375 -0.734375 -1.453125 -0.734375q-0.859375 0 -1.5 0.75q-0.625 0.75 -0.625 2.171875zm6.916687 3.953125l0 -10.734375l1.328125 0l0 10.734375l-1.328125 0zm3.3030396 -9.21875l0 -1.515625l1.3125 0l0 1.515625l-1.3125 0zm0 9.21875l0 -7.78125l1.3125 0l0 7.78125l-1.3125 0zm3.2249146 0l0 -7.78125l1.1875 0l0 1.1875q0.453125 -0.828125 0.84375 -1.09375q0.390625 -0.265625 0.84375 -0.265625q0.671875 0 1.359375 0.421875l-0.453125 1.21875q-0.484375 -0.28125 -0.96875 -0.28125q-0.4375 0 -0.78125 0.265625q-0.34375 0.25 -0.484375 0.71875q-0.21875 0.703125 -0.21875 1.53125l0 4.078125l-1.328125 0z" fill-rule="nonzero"></path><path fill="#000000" d="m584.9931 380.65625l1.296875 -0.203125q0.109375 0.78125 0.609375 1.203125q0.5 0.421875 1.40625 0.421875q0.90625 0 1.34375 -0.359375q0.4375 -0.375 0.4375 -0.875q0 -0.453125 -0.390625 -0.703125q-0.265625 -0.1875 -1.34375 -0.453125q-1.453125 -0.359375 -2.015625 -0.625q-0.546875 -0.28125 -0.84375 -0.75q-0.28125 -0.46875 -0.28125 -1.046875q0 -0.515625 0.234375 -0.953125q0.234375 -0.453125 0.640625 -0.734375q0.3125 -0.234375 0.84375 -0.390625q0.53125 -0.15625 1.140625 -0.15625q0.90625 0 1.59375 0.265625q0.703125 0.265625 1.03125 0.71875q0.328125 0.4375 0.453125 1.203125l-1.28125 0.171875q-0.09375 -0.609375 -0.515625 -0.9375q-0.421875 -0.34375 -1.1875 -0.34375q-0.90625 0 -1.296875 0.3125q-0.390625 0.296875 -0.390625 0.703125q0 0.25 0.15625 0.453125q0.171875 0.21875 0.515625 0.359375q0.1875 0.0625 1.15625 0.328125q1.40625 0.375 1.953125 0.609375q0.5625 0.234375 0.875 0.703125q0.3125 0.453125 0.3125 1.125q0 0.65625 -0.390625 1.234375q-0.375 0.578125 -1.109375 0.90625q-0.71875 0.3125 -1.640625 0.3125q-1.515625 0 -2.3125 -0.625q-0.78125 -0.625 -1.0 -1.875zm10.734375 1.15625l0.1875 1.15625q-0.5625 0.125 -1.0 0.125q-0.71875 0 -1.125 -0.234375q-0.390625 -0.234375 -0.546875 -0.59375q-0.15625 -0.375 -0.15625 -1.5625l0 -4.46875l-0.96875 0l0 -1.03125l0.96875 0l0 -1.921875l1.3125 -0.796875l0 2.71875l1.328125 0l0 1.03125l-1.328125 0l0 4.546875q0 0.5625 0.0625 0.734375q0.078125 0.15625 0.234375 0.25q0.15625 0.09375 0.4375 0.09375q0.234375 0 0.59375 -0.046875zm1.1344604 4.171875l-0.15625 -1.234375q0.4375 0.109375 0.75 0.109375q0.453125 0 0.703125 -0.15625q0.265625 -0.140625 0.4375 -0.40625q0.125 -0.1875 0.40625 -0.96875q0.03125 -0.109375 0.109375 -0.328125l-2.953125 -7.796875l1.421875 0l1.625 4.5q0.3125 0.859375 0.5625 1.8125q0.234375 -0.90625 0.546875 -1.78125l1.65625 -4.53125l1.328125 0l-2.96875 7.90625q-0.46875 1.28125 -0.734375 1.765625q-0.359375 0.65625 -0.8125 0.953125q-0.453125 0.3125 -1.078125 0.3125q-0.375 0 -0.84375 -0.15625zm7.140625 -2.359375l1.28125 0.1875q0.078125 0.59375 0.4375 0.875q0.5 0.359375 1.34375 0.359375q0.921875 0 1.421875 -0.375q0.5 -0.359375 0.671875 -1.015625q0.09375 -0.40625 0.09375 -1.6875q-0.859375 1.015625 -2.15625 1.015625q-1.609375 0 -2.484375 -1.15625q-0.875 -1.15625 -0.875 -2.78125q0 -1.109375 0.40625 -2.046875q0.40625 -0.9375 1.15625 -1.453125q0.765625 -0.515625 1.8125 -0.515625q1.375 0 2.265625 1.109375l0 -0.9375l1.21875 0l0 6.71875q0 1.828125 -0.375 2.578125q-0.375 0.765625 -1.171875 1.203125q-0.796875 0.4375 -1.96875 0.4375q-1.390625 0 -2.25 -0.625q-0.859375 -0.625 -0.828125 -1.890625zm1.09375 -4.671875q0 1.53125 0.59375 2.234375q0.609375 0.703125 1.53125 0.703125q0.90625 0 1.515625 -0.6875q0.625 -0.703125 0.625 -2.203125q0 -1.421875 -0.640625 -2.140625q-0.625 -0.734375 -1.515625 -0.734375q-0.890625 0 -1.5 0.71875q-0.609375 0.703125 -0.609375 2.109375zm10.182373 2.859375l0.1875 1.15625q-0.5625 0.125 -1.0 0.125q-0.71875 0 -1.125 -0.234375q-0.390625 -0.234375 -0.546875 -0.59375q-0.15625 -0.375 -0.15625 -1.5625l0 -4.46875l-0.96875 0l0 -1.03125l0.96875 0l0 -1.921875l1.3125 -0.796875l0 2.71875l1.328125 0l0 1.03125l-1.328125 0l0 4.546875q0 0.5625 0.0625 0.734375q0.078125 0.15625 0.234375 0.25q0.15625 0.09375 0.4375 0.09375q0.234375 0 0.59375 -0.046875z" fill-rule="nonzero"></path></g></svg>

