<?xml version="1.0" standalone="yes"?>

<svg version="1.1" viewBox="0.0 0.0 683.0 471.0" fill="none" stroke="none" stroke-linecap="square" stroke-miterlimit="10" xmlns="http://www.w3.org/2000/svg" xmlns:xlink="http://www.w3.org/1999/xlink"><clipPath id="p.0"><path d="m0 0l683.0 0l0 471.0l-683.0 0l0 -471.0z" clip-rule="nonzero"></path></clipPath><g clip-path="url(#p.0)"><path fill="#000000" fill-opacity="0.0" d="m0 0l683.48816 0l0 471.17847l-683.48816 0z" fill-rule="nonzero"></path><path fill="#cfe2f3" d="m141.67455 11.926747l0 0c0 -6.5869603 5.3397827 -11.926747 11.926743 -11.926747l125.122894 0c3.163147 0 6.1967773 1.2565645 8.433472 3.4932635c2.2366943 2.2366993 3.4932556 5.270314 3.4932556 8.433484l0 47.705563c0 6.58696 -5.3397827 11.92675 -11.926727 11.92675l-125.122894 0c-6.58696 0 -11.926743 -5.3397903 -11.926743 -11.92675z" fill-rule="nonzero"></path><path stroke="#000000" stroke-width="2.0" stroke-linejoin="round" stroke-linecap="butt" d="m141.67455 11.926747l0 0c0 -6.5869603 5.3397827 -11.926747 11.926743 -11.926747l125.122894 0c3.163147 0 6.1967773 1.2565645 8.433472 3.4932635c2.2366943 2.2366993 3.4932556 5.270314 3.4932556 8.433484l0 47.705563c0 6.58696 -5.3397827 11.92675 -11.926727 11.92675l-125.122894 0c-6.58696 0 -11.926743 -5.3397903 -11.926743 -11.92675z" fill-rule="nonzero"></path><path fill="#000000" d="m199.7904 41.94359l0 -13.59375l1.671875 0l0 4.875q1.171875 -1.359375 2.953125 -1.359375q1.09375 0 1.890625 0.4375q0.8125 0.421875 1.15625 1.1875q0.359375 0.765625 0.359375 2.203125l0 6.25l-1.671875 0l0 -6.25q0 -1.25 -0.546875 -1.8125q-0.546875 -0.578125 -1.53125 -0.578125q-0.75 0 -1.40625 0.390625q-0.640625 0.375 -0.921875 1.046875q-0.28125 0.65625 -0.28125 1.8125l0 5.390625l-1.671875 0zm14.031967 -1.5l0.234375 1.484375q-0.703125 0.140625 -1.265625 0.140625q-0.90625 0 -1.40625 -0.28125q-0.5 -0.296875 -0.703125 -0.75q-0.203125 -0.46875 -0.203125 -1.984375l0 -5.65625l-1.234375 0l0 -1.3125l1.234375 0l0 -2.4375l1.65625 -1.0l0 3.4375l1.6875 0l0 1.3125l-1.6875 0l0 5.75q0 0.71875 0.078125 0.921875q0.09375 0.203125 0.296875 0.328125q0.203125 0.125 0.578125 0.125q0.265625 0 0.734375 -0.078125zm1.5270538 1.5l0 -9.859375l1.5 0l0 1.390625q0.453125 -0.71875 1.21875 -1.15625q0.78125 -0.453125 1.765625 -0.453125q1.09375 0 1.796875 0.453125q0.703125 0.453125 0.984375 1.28125q1.171875 -1.734375 3.046875 -1.734375q1.46875 0 2.25 0.8125q0.796875 0.8125 0.796875 2.5l0 6.765625l-1.671875 0l0 -6.203125q0 -1.0 -0.15625 -1.4375q-0.15625 -0.453125 -0.59375 -0.71875q-0.421875 -0.265625 -1.0 -0.265625q-1.03125 0 -1.71875 0.6875q-0.6875 0.6875 -0.6875 2.21875l0 5.71875l-1.671875 0l0 -6.40625q0 -1.109375 -0.40625 -1.65625q-0.40625 -0.5625 -1.34375 -0.5625q-0.703125 0 -1.3125 0.375q-0.59375 0.359375 -0.859375 1.078125q-0.265625 0.71875 -0.265625 2.0625l0 5.109375l-1.671875 0zm15.509552 0l0 -13.59375l1.671875 0l0 13.59375l-1.671875 0z" fill-rule="nonzero"></path><path fill="#cfe2f3" d="m0 209.02124l0 0c0 -6.58696 5.339787 -11.926758 11.926747 -11.926758l125.12287 0c3.1631775 0 6.1967926 1.2565765 8.433487 3.4932709c2.2366943 2.2366943 3.4932709 5.2703094 3.4932709 8.433487l0 47.705566c0 6.5869446 -5.339798 11.926727 -11.926758 11.926727l-125.12287 0c-6.5869603 0 -11.926747 -5.3397827 -11.926747 -11.926727z" fill-rule="nonzero"></path><path stroke="#000000" stroke-width="2.0" stroke-linejoin="round" stroke-linecap="butt" d="m0 209.02124l0 0c0 -6.58696 5.339787 -11.926758 11.926747 -11.926758l125.12287 0c3.1631775 0 6.1967926 1.2565765 8.433487 3.4932709c2.2366943 2.2366943 3.4932709 5.2703094 3.4932709 8.433487l0 47.705566c0 6.5869446 -5.339798 11.926727 -11.926758 11.926727l-125.12287 0c-6.5869603 0 -11.926747 -5.3397827 -11.926747 -11.926727z" fill-rule="nonzero"></path><path fill="#000000" d="m64.78716 239.03807l0 -1.90625l1.90625 0l0 1.90625l-1.90625 0zm6.3281174 0l0 -1.90625l1.90625 0l0 1.90625l-1.90625 0zm6.328125 0l0 -1.90625l1.921875 0l0 1.90625l-1.921875 0zm5.5 0l0 -1.90625l1.90625 0l0 1.90625l-1.90625 0z" fill-rule="nonzero"></path><path fill="#cfe2f3" d="m290.6509 209.02124l0 0c0 -6.58696 5.3397827 -11.926758 11.926758 -11.926758l125.12286 0c3.1631775 0 6.196808 1.2565765 8.433502 3.4932709c2.2366943 2.2366943 3.4932556 5.2703094 3.4932556 8.433487l0 47.705566c0 6.5869446 -5.3397827 11.926727 -11.926758 11.926727l-125.12286 0c-6.586975 0 -11.926758 -5.3397827 -11.926758 -11.926727z" fill-rule="nonzero"></path><path stroke="#000000" stroke-width="2.0" stroke-linejoin="round" stroke-linecap="butt" d="m290.6509 209.02124l0 0c0 -6.58696 5.3397827 -11.926758 11.926758 -11.926758l125.12286 0c3.1631775 0 6.196808 1.2565765 8.433502 3.4932709c2.2366943 2.2366943 3.4932556 5.2703094 3.4932556 8.433487l0 47.705566c0 6.5869446 -5.3397827 11.926727 -11.926758 11.926727l-125.12286 0c-6.586975 0 -11.926758 -5.3397827 -11.926758 -11.926727z" fill-rule="nonzero"></path><path fill="#000000" d="m347.944 237.81932q-0.9375 0.796875 -1.796875 1.125q-0.859375 0.3125 -1.84375 0.3125q-1.609375 0 -2.484375 -0.78125q-0.875 -0.796875 -0.875 -2.03125q0 -0.734375 0.328125 -1.328125q0.328125 -0.59375 0.859375 -0.953125q0.53125 -0.359375 1.203125 -0.546875q0.5 -0.140625 1.484375 -0.25q2.03125 -0.25 2.984375 -0.578125q0 -0.34375 0 -0.4375q0 -1.015625 -0.46875 -1.4375q-0.640625 -0.5625 -1.90625 -0.5625q-1.171875 0 -1.734375 0.40625q-0.5625 0.40625 -0.828125 1.46875l-1.640625 -0.234375q0.234375 -1.046875 0.734375 -1.6875q0.515625 -0.640625 1.46875 -0.984375q0.96875 -0.359375 2.25 -0.359375q1.265625 0 2.046875 0.296875q0.78125 0.296875 1.15625 0.75q0.375 0.453125 0.515625 1.140625q0.09375 0.421875 0.09375 1.53125l0 2.234375q0 2.328125 0.09375 2.953125q0.109375 0.609375 0.4375 1.171875l-1.75 0q-0.265625 -0.515625 -0.328125 -1.21875zm-0.140625 -3.71875q-0.90625 0.359375 -2.734375 0.625q-1.03125 0.140625 -1.453125 0.328125q-0.421875 0.1875 -0.65625 0.546875q-0.234375 0.359375 -0.234375 0.796875q0 0.671875 0.5 1.125q0.515625 0.4375 1.484375 0.4375q0.96875 0 1.71875 -0.421875q0.75 -0.4375 1.109375 -1.15625q0.265625 -0.578125 0.265625 -1.671875l0 -0.609375zm4.0632324 4.9375l0 -9.859375l1.5 0l0 1.5q0.578125 -1.046875 1.0625 -1.375q0.484375 -0.34375 1.078125 -0.34375q0.84375 0 1.71875 0.546875l-0.578125 1.546875q-0.609375 -0.359375 -1.234375 -0.359375q-0.546875 0 -0.984375 0.328125q-0.421875 0.328125 -0.609375 0.90625q-0.28125 0.890625 -0.28125 1.953125l0 5.15625l-1.671875 0zm9.884552 -1.5l0.234375 1.484375q-0.703125 0.140625 -1.265625 0.140625q-0.90625 0 -1.40625 -0.28125q-0.5 -0.296875 -0.703125 -0.75q-0.203125 -0.46875 -0.203125 -1.984375l0 -5.65625l-1.234375 0l0 -1.3125l1.234375 0l0 -2.4375l1.65625 -1.0l0 3.4375l1.6875 0l0 1.3125l-1.6875 0l0 5.75q0 0.71875 0.078125 0.921875q0.09375 0.203125 0.296875 0.328125q0.203125 0.125 0.578125 0.125q0.265625 0 0.734375 -0.078125zm1.5426636 -10.1875l0 -1.90625l1.671875 0l0 1.90625l-1.671875 0zm0 11.6875l0 -9.859375l1.671875 0l0 9.859375l-1.671875 0zm10.566711 -3.609375l1.640625 0.21875q-0.265625 1.6875 -1.375 2.65625q-1.109375 0.953125 -2.734375 0.953125q-2.015625 0 -3.25 -1.3125q-1.21875 -1.328125 -1.21875 -3.796875q0 -1.59375 0.515625 -2.78125q0.53125 -1.203125 1.609375 -1.796875q1.09375 -0.609375 2.359375 -0.609375q1.609375 0 2.625 0.8125q1.015625 0.8125 1.3125 2.3125l-1.625 0.25q-0.234375 -1.0 -0.828125 -1.5q-0.59375 -0.5 -1.421875 -0.5q-1.265625 0 -2.0625 0.90625q-0.78125 0.90625 -0.78125 2.859375q0 1.984375 0.765625 2.890625q0.765625 0.890625 1.984375 0.890625q0.984375 0 1.640625 -0.59375q0.65625 -0.609375 0.84375 -1.859375zm2.859375 3.609375l0 -13.59375l1.671875 0l0 13.59375l-1.671875 0zm10.926056 -3.171875l1.71875 0.21875q-0.40625 1.5 -1.515625 2.34375q-1.09375 0.828125 -2.8125 0.828125q-2.15625 0 -3.421875 -1.328125q-1.265625 -1.328125 -1.265625 -3.734375q0 -2.484375 1.265625 -3.859375q1.28125 -1.375 3.328125 -1.375q1.984375 0 3.234375 1.34375q1.25 1.34375 1.25 3.796875q0 0.140625 -0.015625 0.4375l-7.34375 0q0.09375 1.625 0.921875 2.484375q0.828125 0.859375 2.0625 0.859375q0.90625 0 1.546875 -0.46875q0.65625 -0.484375 1.046875 -1.546875zm-5.484375 -2.703125l5.5 0q-0.109375 -1.234375 -0.625 -1.859375q-0.796875 -0.96875 -2.078125 -0.96875q-1.140625 0 -1.9375 0.78125q-0.78125 0.765625 -0.859375 2.046875z" fill-rule="nonzero"></path><path fill="#cfe2f3" d="m439.6273 315.43857l0 0c0 -6.586975 5.3397827 -11.926758 11.926758 -11.926758l125.122894 0c3.163147 0 6.1967773 1.2565613 8.433472 3.4932556c2.2366943 2.2366943 3.4932861 5.2703247 3.4932861 8.433502l0 47.705536c0 6.586975 -5.3398438 11.926758 -11.926758 11.926758l-125.122894 0c-6.586975 0 -11.926758 -5.3397827 -11.926758 -11.926758z" fill-rule="nonzero"></path><path stroke="#000000" stroke-width="2.0" stroke-linejoin="round" stroke-linecap="butt" d="m439.6273 315.43857l0 0c0 -6.586975 5.3397827 -11.926758 11.926758 -11.926758l125.122894 0c3.163147 0 6.1967773 1.2565613 8.433472 3.4932556c2.2366943 2.2366943 3.4932861 5.2703247 3.4932861 8.433502l0 47.705536c0 6.586975 -5.3398438 11.926758 -11.926758 11.926758l-125.122894 0c-6.586975 0 -11.926758 -5.3397827 -11.926758 -11.926758z" fill-rule="nonzero"></path><path fill="#000000" d="m510.1776 349.23666l0 -13.640625l1.53125 0l0 1.28125q0.53125 -0.75 1.203125 -1.125q0.6875 -0.375 1.640625 -0.375q1.265625 0 2.234375 0.65625q0.96875 0.640625 1.453125 1.828125q0.5 1.1875 0.5 2.59375q0 1.515625 -0.546875 2.734375q-0.546875 1.203125 -1.578125 1.84375q-1.03125 0.640625 -2.171875 0.640625q-0.84375 0 -1.515625 -0.34375q-0.65625 -0.359375 -1.078125 -0.890625l0 4.796875l-1.671875 0zm1.515625 -8.65625q0 1.90625 0.765625 2.8125q0.78125 0.90625 1.875 0.90625q1.109375 0 1.890625 -0.9375q0.796875 -0.9375 0.796875 -2.921875q0 -1.875 -0.78125 -2.8125q-0.765625 -0.9375 -1.84375 -0.9375q-1.0625 0 -1.890625 1.0q-0.8125 1.0 -0.8125 2.890625z" fill-rule="nonzero"></path><path fill="#cfe2f3" d="m141.67455 315.43857l0 0c0 -6.586975 5.3397827 -11.926758 11.926743 -11.926758l125.122894 0c3.163147 0 6.1967773 1.2565613 8.433472 3.4932556c2.2366943 2.2366943 3.4932556 5.2703247 3.4932556 8.433502l0 47.705536c0 6.586975 -5.3397827 11.926758 -11.926727 11.926758l-125.122894 0c-6.58696 0 -11.926743 -5.3397827 -11.926743 -11.926758z" fill-rule="nonzero"></path><path stroke="#000000" stroke-width="2.0" stroke-linejoin="round" stroke-linecap="butt" d="m141.67455 315.43857l0 0c0 -6.586975 5.3397827 -11.926758 11.926743 -11.926758l125.122894 0c3.163147 0 6.1967773 1.2565613 8.433472 3.4932556c2.2366943 2.2366943 3.4932556 5.2703247 3.4932556 8.433502l0 47.705536c0 6.586975 -5.3397827 11.926758 -11.926727 11.926758l-125.122894 0c-6.58696 0 -11.926743 -5.3397827 -11.926743 -11.926758z" fill-rule="nonzero"></path><path fill="#000000" d="m207.037 345.4554l0 -13.59375l1.671875 0l0 4.875q1.1718903 -1.359375 2.9531403 -1.359375q1.09375 0 1.890625 0.4375q0.8125 0.421875 1.15625 1.1875q0.359375 0.765625 0.359375 2.203125l0 6.25l-1.671875 0l0 -6.25q0 -1.25 -0.546875 -1.8125q-0.546875 -0.578125 -1.53125 -0.578125q-0.75 0 -1.40625 0.390625q-0.640625 0.375 -0.92189026 1.046875q-0.28125 0.65625 -0.28125 1.8125l0 5.390625l-1.671875 0zm16.203857 0l-1.671875 0l0 -10.640625q-0.59375 0.578125 -1.578125 1.15625q-0.984375 0.5625 -1.765625 0.859375l0 -1.625q1.40625 -0.65625 2.453125 -1.59375q1.046875 -0.9375 1.484375 -1.8125l1.078125 0l0 13.65625z" fill-rule="nonzero"></path><path fill="#000000" fill-opacity="0.0" d="m216.16273 71.55906l0 28.821518" fill-rule="nonzero"></path><path stroke="#000000" stroke-width="2.0" stroke-linejoin="round" stroke-linecap="butt" d="m216.16273 71.55905l0 16.821526" fill-rule="evenodd"></path><path fill="#000000" stroke="#000000" stroke-width="2.0" stroke-linecap="butt" d="m212.85927 88.38058l3.3034668 9.076195l3.3034668 -9.076195z" fill-rule="evenodd"></path><path fill="#000000" fill-opacity="0.0" d="m216.16273 171.93964l-141.67455 25.154846" fill-rule="nonzero"></path><path stroke="#000000" stroke-width="2.0" stroke-linejoin="round" stroke-linecap="butt" d="m216.16273 171.93964l-129.85934 23.057022" fill-rule="evenodd"></path><path fill="#000000" stroke="#000000" stroke-width="2.0" stroke-linecap="butt" d="m85.72588 191.74406l-8.358917 4.839279l9.513939 1.6659088z" fill-rule="evenodd"></path><path fill="#000000" fill-opacity="0.0" d="m216.16273 171.93964l148.97636 25.154846" fill-rule="nonzero"></path><path stroke="#000000" stroke-width="2.0" stroke-linejoin="round" stroke-linecap="butt" d="m216.16273 171.93964l137.14384 23.156921" fill-rule="evenodd"></path><path fill="#000000" stroke="#000000" stroke-width="2.0" stroke-linecap="butt" d="m352.7566 198.35391l9.499512 -1.7462158l-8.399506 -4.7684937z" fill-rule="evenodd"></path><path fill="#000000" fill-opacity="0.0" d="m365.1391 268.65353l-148.97636 34.858276" fill-rule="nonzero"></path><path stroke="#000000" stroke-width="2.0" stroke-linejoin="round" stroke-linecap="butt" d="m365.1391 268.65353l-137.29196 32.1243" fill-rule="evenodd"></path><path fill="#000000" stroke="#000000" stroke-width="2.0" stroke-linecap="butt" d="m227.0945 297.56125l-8.084854 5.284424l9.590118 1.1487427z" fill-rule="evenodd"></path><path fill="#000000" fill-opacity="0.0" d="m365.1391 268.65353l148.97638 34.858276" fill-rule="nonzero"></path><path stroke="#000000" stroke-width="2.0" stroke-linejoin="round" stroke-linecap="butt" d="m365.1391 268.65353l137.29196 32.1243" fill-rule="evenodd"></path><path fill="#000000" stroke="#000000" stroke-width="2.0" stroke-linecap="butt" d="m501.67844 303.99442l9.590149 -1.1487427l-8.084869 -5.284424z" fill-rule="evenodd"></path><path fill="#cfe2f3" d="m141.67455 112.30733l0 0c0 -6.58696 5.3397827 -11.92675 11.926743 -11.92675l125.122894 0c3.163147 0 6.1967773 1.2565613 8.433472 3.4932632c2.2366943 2.236702 3.4932556 5.270317 3.4932556 8.433487l0 47.70555c0 6.586975 -5.3397827 11.926758 -11.926727 11.926758l-125.122894 0c-6.58696 0 -11.926743 -5.3397827 -11.926743 -11.926758z" fill-rule="nonzero"></path><path stroke="#000000" stroke-width="2.0" stroke-linejoin="round" stroke-linecap="butt" d="m141.67455 112.30733l0 0c0 -6.58696 5.3397827 -11.92675 11.926743 -11.92675l125.122894 0c3.163147 0 6.1967773 1.2565613 8.433472 3.4932632c2.2366943 2.236702 3.4932556 5.270317 3.4932556 8.433487l0 47.70555c0 6.586975 -5.3397827 11.926758 -11.926727 11.926758l-125.122894 0c-6.58696 0 -11.926743 -5.3397827 -11.926743 -11.926758z" fill-rule="nonzero"></path><path fill="#000000" d="m198.73196 142.32417l-1.546875 0l0 -13.59375l1.65625 0l0 4.84375q1.0625 -1.328125 2.703125 -1.328125q0.90625 0 1.71875 0.375q0.8125 0.359375 1.328125 1.03125q0.53125 0.65625 0.828125 1.59375q0.296875 0.9375 0.296875 2.0q0 2.53125 -1.25 3.921875q-1.25 1.375 -3.0 1.375q-1.75 0 -2.734375 -1.453125l0 1.234375zm-0.015625 -5.0q0 1.765625 0.46875 2.5625q0.796875 1.28125 2.140625 1.28125q1.09375 0 1.890625 -0.9375q0.796875 -0.953125 0.796875 -2.84375q0 -1.921875 -0.765625 -2.84375q-0.765625 -0.921875 -1.84375 -0.921875q-1.09375 0 -1.890625 0.953125q-0.796875 0.953125 -0.796875 2.75zm8.219467 0.078125q0 -2.734375 1.53125 -4.0625q1.265625 -1.09375 3.09375 -1.09375q2.03125 0 3.3125 1.34375q1.296875 1.328125 1.296875 3.671875q0 1.90625 -0.578125 3.0q-0.5625 1.078125 -1.65625 1.6875q-1.078125 0.59375 -2.375 0.59375q-2.0625 0 -3.34375 -1.328125q-1.28125 -1.328125 -1.28125 -3.8125zm1.71875 0q0 1.890625 0.828125 2.828125q0.828125 0.9375 2.078125 0.9375q1.25 0 2.0625 -0.9375q0.828125 -0.953125 0.828125 -2.890625q0 -1.828125 -0.828125 -2.765625q-0.828125 -0.9375 -2.0625 -0.9375q-1.25 0 -2.078125 0.9375q-0.828125 0.9375 -0.828125 2.828125zm15.672592 4.921875l0 -1.25q-0.9375 1.46875 -2.75 1.46875q-1.171875 0 -2.171875 -0.640625q-0.984375 -0.65625 -1.53125 -1.8125q-0.53125 -1.171875 -0.53125 -2.6875q0 -1.46875 0.484375 -2.671875q0.5 -1.203125 1.46875 -1.84375q0.984375 -0.640625 2.203125 -0.640625q0.890625 0 1.578125 0.375q0.703125 0.375 1.140625 0.984375l0 -4.875l1.65625 0l0 13.59375l-1.546875 0zm-5.28125 -4.921875q0 1.890625 0.796875 2.828125q0.8125 0.9375 1.890625 0.9375q1.09375 0 1.859375 -0.890625q0.765625 -0.890625 0.765625 -2.734375q0 -2.015625 -0.78125 -2.953125q-0.78125 -0.953125 -1.921875 -0.953125q-1.109375 0 -1.859375 0.90625q-0.75 0.90625 -0.75 2.859375zm9.188217 8.71875l-0.171875 -1.5625q0.546875 0.140625 0.953125 0.140625q0.546875 0 0.875 -0.1875q0.34375 -0.1875 0.5625 -0.515625q0.15625 -0.25 0.5 -1.25q0.046875 -0.140625 0.15625 -0.40625l-3.734375 -9.875l1.796875 0l2.046875 5.71875q0.40625 1.078125 0.71875 2.28125q0.28125 -1.15625 0.6875 -2.25l2.09375 -5.75l1.671875 0l-3.75 10.03125q-0.59375 1.625 -0.9375 2.234375q-0.4375 0.828125 -1.015625 1.203125q-0.578125 0.390625 -1.375 0.390625q-0.484375 0 -1.078125 -0.203125z" fill-rule="nonzero"></path><path fill="#cfe2f3" d="m141.67455 411.54617l0 0c0 -6.586975 5.3397827 -11.926758 11.926743 -11.926758l125.122894 0c3.163147 0 6.1967773 1.2565613 8.433472 3.4932556c2.2366943 2.2367249 3.4932556 5.2703247 3.4932556 8.433502l0 47.705566c0 6.5869446 -5.3397827 11.926727 -11.926727 11.926727l-125.122894 0c-6.58696 0 -11.926743 -5.3397827 -11.926743 -11.926727z" fill-rule="nonzero"></path><path stroke="#000000" stroke-width="2.0" stroke-linejoin="round" stroke-linecap="butt" d="m141.67455 411.54617l0 0c0 -6.586975 5.3397827 -11.926758 11.926743 -11.926758l125.122894 0c3.163147 0 6.1967773 1.2565613 8.433472 3.4932556c2.2366943 2.2367249 3.4932556 5.2703247 3.4932556 8.433502l0 47.705566c0 6.5869446 -5.3397827 11.926727 -11.926727 11.926727l-125.122894 0c-6.58696 0 -11.926743 -5.3397827 -11.926743 -11.926727z" fill-rule="nonzero"></path><path fill="#000000" d="m183.7337 440.06302l0.234375 1.484375q-0.703125 0.140625 -1.265625 0.140625q-0.90625 0 -1.40625 -0.28125q-0.5 -0.296875 -0.703125 -0.75q-0.203125 -0.46875 -0.203125 -1.984375l0 -5.65625l-1.234375 0l0 -1.3125l1.234375 0l0 -2.4375l1.65625 -1.0l0 3.4375l1.6875 0l0 1.3125l-1.6875 0l0 5.75q0 0.71875 0.078125 0.921875q0.09375 0.203125 0.296875 0.328125q0.203125 0.125 0.578125 0.125q0.265625 0 0.734375 -0.078125zm8.277054 -1.671875l1.71875 0.21875q-0.40625 1.5 -1.515625 2.34375q-1.09375 0.828125 -2.8125 0.828125q-2.15625 0 -3.421875 -1.328125q-1.265625 -1.328125 -1.265625 -3.734375q0 -2.484375 1.265625 -3.859375q1.28125 -1.375 3.328125 -1.375q1.984375 0 3.234375 1.34375q1.25 1.34375 1.25 3.796875q0 0.140625 -0.015625 0.4375l-7.34375 0q0.09375 1.625 0.921875 2.484375q0.828125 0.859375 2.0625 0.859375q0.90625 0 1.546875 -0.46875q0.65625 -0.484375 1.046875 -1.546875zm-5.484375 -2.703125l5.5 0q-0.109375 -1.234375 -0.625 -1.859375q-0.796875 -0.96875 -2.078125 -0.96875q-1.140625 0 -1.9375 0.78125q-0.78125 0.765625 -0.859375 2.046875zm8.000717 5.875l3.59375 -5.125l-3.328125 -4.734375l2.09375 0l1.515625 2.3125q0.421875 0.65625 0.671875 1.109375q0.421875 -0.609375 0.765625 -1.09375l1.65625 -2.328125l1.984375 0l-3.390625 4.640625l3.65625 5.21875l-2.046875 0l-2.03125 -3.0625l-0.53125 -0.828125l-2.59375 3.890625l-2.015625 0zm14.09375 -1.5l0.234375 1.484375q-0.703125 0.140625 -1.265625 0.140625q-0.90625 0 -1.40625 -0.28125q-0.5 -0.296875 -0.703125 -0.75q-0.203125 -0.46875 -0.203125 -1.984375l0 -5.65625l-1.234375 0l0 -1.3125l1.234375 0l0 -2.4375l1.65625 -1.0l0 3.4375l1.6875 0l0 1.3125l-1.6875 0l0 5.75q0 0.71875 0.078125 0.921875q0.09375 0.203125 0.296875 0.328125q0.203125 0.125 0.578125 0.125q0.265625 0 0.734375 -0.078125zm1.7301788 1.5l0 -13.59375l1.84375 0l7.140625 10.671875l0 -10.671875l1.71875 0l0 13.59375l-1.84375 0l-7.140625 -10.6875l0 10.6875l-1.71875 0zm12.644821 -4.921875q0 -2.734375 1.53125 -4.0625q1.265625 -1.09375 3.09375 -1.09375q2.03125 0 3.3125 1.34375q1.296875 1.328125 1.296875 3.671875q0 1.90625 -0.578125 3.0q-0.5625 1.078125 -1.65625 1.6875q-1.078125 0.59375 -2.375 0.59375q-2.0625 0 -3.34375 -1.328125q-1.28125 -1.328125 -1.28125 -3.8125zm1.71875 0q0 1.890625 0.828125 2.828125q0.828125 0.9375 2.078125 0.9375q1.25 0 2.0625 -0.9375q0.828125 -0.953125 0.828125 -2.890625q0 -1.828125 -0.828125 -2.765625q-0.828125 -0.9375 -2.0625 -0.9375q-1.25 0 -2.078125 0.9375q-0.828125 0.9375 -0.828125 2.828125zm15.672592 4.921875l0 -1.25q-0.9375 1.46875 -2.75 1.46875q-1.171875 0 -2.171875 -0.640625q-0.984375 -0.65625 -1.53125 -1.8125q-0.53125 -1.171875 -0.53125 -2.6875q0 -1.46875 0.484375 -2.671875q0.5 -1.203125 1.46875 -1.84375q0.984375 -0.640625 2.203125 -0.640625q0.890625 0 1.578125 0.375q0.703125 0.375 1.140625 0.984375l0 -4.875l1.65625 0l0 13.59375l-1.546875 0zm-5.28125 -4.921875q0 1.890625 0.796875 2.828125q0.8125 0.9375 1.890625 0.9375q1.09375 0 1.859375 -0.890625q0.765625 -0.890625 0.765625 -2.734375q0 -2.015625 -0.78125 -2.953125q-0.78125 -0.953125 -1.921875 -0.953125q-1.109375 0 -1.859375 0.90625q-0.75 0.90625 -0.75 2.859375zm16.016342 1.75l1.71875 0.21875q-0.40625 1.5 -1.515625 2.34375q-1.09375 0.828125 -2.8125 0.828125q-2.15625 0 -3.421875 -1.328125q-1.265625 -1.328125 -1.265625 -3.734375q0 -2.484375 1.265625 -3.859375q1.28125 -1.375 3.328125 -1.375q1.984375 0 3.234375 1.34375q1.25 1.34375 1.25 3.796875q0 0.140625 -0.015625 0.4375l-7.34375 0q0.09375 1.625 0.921875 2.484375q0.828125 0.859375 2.0625 0.859375q0.90625 0 1.546875 -0.46875q0.65625 -0.484375 1.046875 -1.546875zm-5.484375 -2.703125l5.5 0q-0.109375 -1.234375 -0.625 -1.859375q-0.796875 -0.96875 -2.078125 -0.96875q-1.140625 0 -1.9375 0.78125q-0.78125 0.765625 -0.859375 2.046875z" fill-rule="nonzero"></path><path fill="#cfe2f3" d="m439.6273 411.54617l0 0c0 -6.586975 5.3397827 -11.926758 11.926758 -11.926758l125.122894 0c3.163147 0 6.1967773 1.2565613 8.433472 3.4932556c2.2366943 2.2367249 3.4932861 5.2703247 3.4932861 8.433502l0 47.705566c0 6.5869446 -5.3397827 11.926727 -11.926758 11.926727l-125.122894 0c-6.586975 0 -11.926758 -5.3397827 -11.926758 -11.926727z" fill-rule="nonzero"></path><path stroke="#000000" stroke-width="2.0" stroke-linejoin="round" stroke-linecap="butt" d="m439.6273 411.54617l0 0c0 -6.586975 5.3397827 -11.926758 11.926758 -11.926758l125.122894 0c3.163147 0 6.1967773 1.2565613 8.433472 3.4932556c2.2366943 2.2367249 3.4932861 5.2703247 3.4932861 8.433502l0 47.705566c0 6.5869446 -5.3397827 11.926727 -11.926758 11.926727l-125.122894 0c-6.586975 0 -11.926758 -5.3397827 -11.926758 -11.926727z" fill-rule="nonzero"></path><path fill="#000000" d="m481.68646 440.06302l0.234375 1.484375q-0.703125 0.140625 -1.265625 0.140625q-0.90625 0 -1.40625 -0.28125q-0.5 -0.296875 -0.703125 -0.75q-0.203125 -0.46875 -0.203125 -1.984375l0 -5.65625l-1.234375 0l0 -1.3125l1.234375 0l0 -2.4375l1.65625 -1.0l0 3.4375l1.6875 0l0 1.3125l-1.6875 0l0 5.75q0 0.71875 0.078125 0.921875q0.09375 0.203125 0.296875 0.328125q0.203125 0.125 0.578125 0.125q0.265625 0 0.734375 -0.078125zm8.277039 -1.671875l1.71875 0.21875q-0.40625 1.5 -1.515625 2.34375q-1.09375 0.828125 -2.8125 0.828125q-2.15625 0 -3.421875 -1.328125q-1.265625 -1.328125 -1.265625 -3.734375q0 -2.484375 1.265625 -3.859375q1.28125 -1.375 3.328125 -1.375q1.984375 0 3.234375 1.34375q1.25 1.34375 1.25 3.796875q0 0.140625 -0.015625 0.4375l-7.34375 0q0.09375 1.625 0.921875 2.484375q0.828125 0.859375 2.0625 0.859375q0.90625 0 1.546875 -0.46875q0.65625 -0.484375 1.046875 -1.546875zm-5.484375 -2.703125l5.5 0q-0.109375 -1.234375 -0.625 -1.859375q-0.796875 -0.96875 -2.078125 -0.96875q-1.140625 0 -1.9375 0.78125q-0.78125 0.765625 -0.859375 2.046875zm8.000732 5.875l3.59375 -5.125l-3.328125 -4.734375l2.09375 0l1.515625 2.3125q0.421875 0.65625 0.671875 1.109375q0.421875 -0.609375 0.765625 -1.09375l1.65625 -2.328125l1.984375 0l-3.390625 4.640625l3.65625 5.21875l-2.046875 0l-2.03125 -3.0625l-0.53125 -0.828125l-2.59375 3.890625l-2.015625 0zm14.09375 -1.5l0.234375 1.484375q-0.703125 0.140625 -1.265625 0.140625q-0.90625 0 -1.40625 -0.28125q-0.5 -0.296875 -0.703125 -0.75q-0.203125 -0.46875 -0.203125 -1.984375l0 -5.65625l-1.234375 0l0 -1.3125l1.234375 0l0 -2.4375l1.65625 -1.0l0 3.4375l1.6875 0l0 1.3125l-1.6875 0l0 5.75q0 0.71875 0.078125 0.921875q0.09375 0.203125 0.296875 0.328125q0.203125 0.125 0.578125 0.125q0.265625 0 0.734375 -0.078125zm1.7301636 1.5l0 -13.59375l1.84375 0l7.140625 10.671875l0 -10.671875l1.71875 0l0 13.59375l-1.84375 0l-7.140625 -10.6875l0 10.6875l-1.71875 0zm12.644836 -4.921875q0 -2.734375 1.53125 -4.0625q1.265625 -1.09375 3.09375 -1.09375q2.03125 0 3.3125 1.34375q1.296875 1.328125 1.296875 3.671875q0 1.90625 -0.578125 3.0q-0.5625 1.078125 -1.65625 1.6875q-1.078125 0.59375 -2.375 0.59375q-2.0625 0 -3.34375 -1.328125q-1.28125 -1.328125 -1.28125 -3.8125zm1.71875 0q0 1.890625 0.828125 2.828125q0.828125 0.9375 2.078125 0.9375q1.25 0 2.0625 -0.9375q0.828125 -0.953125 0.828125 -2.890625q0 -1.828125 -0.828125 -2.765625q-0.828125 -0.9375 -2.0625 -0.9375q-1.25 0 -2.078125 0.9375q-0.828125 0.9375 -0.828125 2.828125zm15.672607 4.921875l0 -1.25q-0.9375 1.46875 -2.75 1.46875q-1.171875 0 -2.171875 -0.640625q-0.984375 -0.65625 -1.53125 -1.8125q-0.53125 -1.171875 -0.53125 -2.6875q0 -1.46875 0.484375 -2.671875q0.5 -1.203125 1.46875 -1.84375q0.984375 -0.640625 2.203125 -0.640625q0.890625 0 1.578125 0.375q0.703125 0.375 1.140625 0.984375l0 -4.875l1.65625 0l0 13.59375l-1.546875 0zm-5.28125 -4.921875q0 1.890625 0.796875 2.828125q0.8125 0.9375 1.890625 0.9375q1.09375 0 1.859375 -0.890625q0.765625 -0.890625 0.765625 -2.734375q0 -2.015625 -0.78125 -2.953125q-0.78125 -0.953125 -1.921875 -0.953125q-1.109375 0 -1.859375 0.90625q-0.75 0.90625 -0.75 2.859375zm16.016296 1.75l1.71875 0.21875q-0.40625 1.5 -1.515625 2.34375q-1.09375 0.828125 -2.8125 0.828125q-2.15625 0 -3.421875 -1.328125q-1.265625 -1.328125 -1.265625 -3.734375q0 -2.484375 1.265625 -3.859375q1.28125 -1.375 3.328125 -1.375q1.984375 0 3.234375 1.34375q1.25 1.34375 1.25 3.796875q0 0.140625 -0.015625 0.4375l-7.34375 0q0.09375 1.625 0.921875 2.484375q0.828125 0.859375 2.0625 0.859375q0.90625 0 1.546875 -0.46875q0.65625 -0.484375 1.046875 -1.546875zm-5.484375 -2.703125l5.5 0q-0.109375 -1.234375 -0.625 -1.859375q-0.796875 -0.96875 -2.078125 -0.96875q-1.140625 0 -1.9375 0.78125q-0.78125 0.765625 -0.859375 2.046875z" fill-rule="nonzero"></path><path fill="#000000" fill-opacity="0.0" d="m216.16273 375.07086l0 24.548553" fill-rule="nonzero"></path><path stroke="#000000" stroke-width="2.0" stroke-linejoin="round" stroke-linecap="butt" d="m216.16273 375.07086l0 12.548553" fill-rule="evenodd"></path><path fill="#000000" stroke="#000000" stroke-width="2.0" stroke-linecap="butt" d="m212.85927 387.61942l3.3034668 9.076202l3.3034668 -9.076202z" fill-rule="evenodd"></path><path fill="#000000" fill-opacity="0.0" d="m514.1155 375.07086l0 24.548553" fill-rule="nonzero"></path><path stroke="#000000" stroke-width="2.0" stroke-linejoin="round" stroke-linecap="butt" d="m514.1155 375.07086l0 12.548553" fill-rule="evenodd"></path><path fill="#000000" stroke="#000000" stroke-width="2.0" stroke-linecap="butt" d="m510.812 387.61942l3.3034668 9.076202l3.3034668 -9.076202z" fill-rule="evenodd"></path></g></svg>

